<svg width="119" height="23" viewBox="0 0 119 23" fill="none" xmlns="http://www.w3.org/2000/svg">
<path d="M65.238 1.722V21.322H61.752V7.364L55.634 18.326H53.604L47.486 7.364V21.322H44V1.722H47.892L54.612 13.468L61.346 1.722H65.238ZM71.2552 3.556C70.7605 3.556 70.3405 3.38333 69.9952 3.038C69.6498 2.68333 69.4772 2.26333 69.4772 1.778C69.4772 1.29267 69.6498 0.877332 69.9952 0.532002C70.3405 0.177334 70.7605 0 71.2552 0C71.7405 0 72.1558 0.177334 72.5012 0.532002C72.8465 0.877332 73.0192 1.29267 73.0192 1.778C73.0192 2.26333 72.8465 2.68333 72.5012 3.038C72.1558 3.38333 71.7405 3.556 71.2552 3.556ZM72.8512 5.922V21.322H69.6452V5.922H72.8512ZM80.316 1.05V21.322H77.11V1.05H80.316ZM96.934 5.922H100.056V21.322H96.934L96.864 18.06C96.416 19.152 95.7207 20.006 94.778 20.622C93.8447 21.2287 92.706 21.532 91.362 21.532C89.906 21.532 88.5947 21.2053 87.428 20.552C86.2707 19.8987 85.3607 18.97 84.698 17.766C84.0353 16.5527 83.704 15.1713 83.704 13.622C83.704 11.2793 84.4227 9.3753 85.86 7.91C87.3067 6.44467 89.1407 5.712 91.362 5.712C92.7153 5.712 93.8633 6.02 94.806 6.636C95.758 7.252 96.458 8.10133 96.906 9.184L96.934 5.922ZM88.254 17.206C89.1033 18.074 90.2233 18.508 91.614 18.508C93.0047 18.508 94.1247 18.0553 94.974 17.15C95.8327 16.2447 96.2573 15.0593 96.248 13.594C96.2387 12.1473 95.8047 10.976 94.946 10.08C94.0967 9.184 92.986 8.736 91.614 8.736C90.2327 8.736 89.1127 9.17467 88.254 10.052C87.4047 10.9293 86.98 12.1193 86.98 13.622C86.98 15.1433 87.4047 16.338 88.254 17.206ZM115.097 21.322V12.586C115.097 11.242 114.794 10.2247 114.187 9.534C113.58 8.84333 112.675 8.498 111.471 8.498C110.304 8.498 109.352 8.932 108.615 9.8C107.878 10.6587 107.514 11.7273 107.523 13.006V21.322H104.317V5.922H107.439L107.523 8.68C108.26 6.70133 109.875 5.712 112.367 5.712C114.243 5.712 115.699 6.286 116.735 7.434C117.78 8.57267 118.303 10.1547 118.303 12.18V21.322H115.097Z" fill="white"/>
<path d="M11.5889 0L8.60303 11.1321H14.2014L17.1872 0H11.5889Z" fill="white"/>
<path d="M3.00447 11.1321L0 22.2641H5.59839L8.60287 11.1321H3.00447Z" fill="white"/>
<path d="M22.7856 0L19.7998 11.1321H25.3982L28.3839 0H22.7856Z" fill="white"/>
<path d="M14.2012 11.1321L11.1968 22.2641H16.7952L19.7997 11.1321H14.2012Z" fill="white"/>
</svg>
