<svg width="246" height="238" viewBox="0 0 246 238" fill="none" xmlns="http://www.w3.org/2000/svg">
<circle cx="119" cy="119" r="119" fill="url(#paint0_linear_5_8)"/>
<path d="M53.96 131.67V144.63L9.05 128.61V116.19L53.96 100.17V113.13L22.1 122.4L53.96 131.67ZM76.358 153H62.498L67.718 92.34H82.928C90.188 111.24 94.268 122.07 95.168 124.83C96.128 127.59 96.908 130.2 97.508 132.66C98.468 128.7 100.568 122.58 103.808 114.3L112.358 92.34H127.568L133.868 153H120.008L117.758 129.51L116.588 111.78C115.328 115.44 110.318 128.97 101.558 152.37H93.368C85.088 130.05 80.318 116.52 79.058 111.78C79.058 116.04 78.788 121.95 78.248 129.51L76.358 153ZM151.74 162.27H138.15L170.46 89.37H184.14L151.74 162.27ZM229.038 128.61L184.128 144.63V131.67L215.988 122.4L184.128 113.13V100.17L229.038 116.19V128.61Z" fill="white"/>
<defs>
<linearGradient id="paint0_linear_5_8" x1="0" y1="119" x2="238" y2="119" gradientUnits="userSpaceOnUse">
<stop/>
<stop offset="1" stop-color="#434343"/>
</linearGradient>
</defs>
</svg>
