<svg width="97" height="32" viewBox="0 0 97 32" fill="none" xmlns="http://www.w3.org/2000/svg">
<path d="M48.0703 10.436V23H45.5503V17.654H40.1683V23H37.6483V10.436H40.1683V15.602H45.5503V10.436H48.0703Z" fill="white"/>
<path d="M57.6786 16.556C58.3866 16.688 58.9686 17.042 59.4246 17.618C59.8806 18.194 60.1086 18.854 60.1086 19.598C60.1086 20.27 59.9406 20.864 59.6046 21.38C59.2806 21.884 58.8066 22.28 58.1826 22.568C57.5586 22.856 56.8206 23 55.9686 23H50.5506V10.436H55.7346C56.5866 10.436 57.3186 10.574 57.9306 10.85C58.5546 11.126 59.0226 11.51 59.3346 12.002C59.6586 12.494 59.8206 13.052 59.8206 13.676C59.8206 14.408 59.6226 15.02 59.2266 15.512C58.8426 16.004 58.3266 16.352 57.6786 16.556ZM53.0706 15.62H55.3746C55.9746 15.62 56.4366 15.488 56.7606 15.224C57.0846 14.948 57.2466 14.558 57.2466 14.054C57.2466 13.55 57.0846 13.16 56.7606 12.884C56.4366 12.608 55.9746 12.47 55.3746 12.47H53.0706V15.62ZM55.6086 20.948C56.2206 20.948 56.6946 20.804 57.0306 20.516C57.3786 20.228 57.5526 19.82 57.5526 19.292C57.5526 18.752 57.3726 18.332 57.0126 18.032C56.6526 17.72 56.1666 17.564 55.5546 17.564H53.0706V20.948H55.6086ZM61.469 17.978C61.469 16.97 61.667 16.076 62.063 15.296C62.471 14.516 63.017 13.916 63.701 13.496C64.397 13.076 65.171 12.866 66.023 12.866C66.767 12.866 67.415 13.016 67.967 13.316C68.531 13.616 68.981 13.994 69.317 14.45V13.028H71.855V23H69.317V21.542C68.993 22.01 68.543 22.4 67.967 22.712C67.403 23.012 66.749 23.162 66.005 23.162C65.165 23.162 64.397 22.946 63.701 22.514C63.017 22.082 62.471 21.476 62.063 20.696C61.667 19.904 61.469 18.998 61.469 17.978ZM69.317 18.014C69.317 17.402 69.197 16.88 68.957 16.448C68.717 16.004 68.393 15.668 67.985 15.44C67.577 15.2 67.139 15.08 66.671 15.08C66.203 15.08 65.771 15.194 65.375 15.422C64.979 15.65 64.655 15.986 64.403 16.43C64.163 16.862 64.043 17.378 64.043 17.978C64.043 18.578 64.163 19.106 64.403 19.562C64.655 20.006 64.979 20.348 65.375 20.588C65.783 20.828 66.215 20.948 66.671 20.948C67.139 20.948 67.577 20.834 67.985 20.606C68.393 20.366 68.717 20.03 68.957 19.598C69.197 19.154 69.317 18.626 69.317 18.014ZM79.8422 12.884C81.0302 12.884 81.9902 13.262 82.7222 14.018C83.4542 14.762 83.8202 15.806 83.8202 17.15V23H81.3002V17.492C81.3002 16.7 81.1022 16.094 80.7062 15.674C80.3102 15.242 79.7702 15.026 79.0862 15.026C78.3902 15.026 77.8382 15.242 77.4302 15.674C77.0342 16.094 76.8362 16.7 76.8362 17.492V23H74.3162V13.028H76.8362V14.27C77.1722 13.838 77.5982 13.502 78.1142 13.262C78.6422 13.01 79.2182 12.884 79.8422 12.884ZM92.1206 23L88.7366 18.752V23H86.2166V9.68H88.7366V17.258L92.0846 13.028H95.3606L90.9686 18.032L95.3966 23H92.1206Z" fill="#5CE1E6"/>
<path d="M16.4062 0C13.2417 -3.77363e-08 10.1483 0.938383 7.51713 2.69649C4.88594 4.45459 2.83518 6.95345 1.62418 9.87706C0.413176 12.8007 0.096322 16.0177 0.713685 19.1214C1.33105 22.2251 2.8549 25.0761 5.09254 27.3137C7.33018 29.5513 10.1811 31.0752 13.2848 31.6926C16.3885 32.3099 19.6056 31.9931 22.5292 30.7821C25.4528 29.5711 27.9517 27.5203 29.7098 24.8891C31.4679 22.2579 32.4062 19.1645 32.4062 16L24.4062 16C24.4062 17.5823 23.9371 19.129 23.058 20.4446C22.179 21.7602 20.9295 22.7855 19.4677 23.391C18.0059 23.9965 16.3974 24.155 14.8455 23.8463C13.2937 23.5376 11.8682 22.7757 10.7494 21.6569C9.63057 20.538 8.86865 19.1126 8.55997 17.5607C8.25129 16.0089 8.40971 14.4003 9.01521 12.9385C9.62072 11.4767 10.6461 10.2273 11.9617 9.34824C13.2773 8.46919 14.824 8 16.4062 8V0Z" fill="white"/>
<path d="M16.4062 0C14.3051 -2.5056e-08 12.2245 0.413852 10.2833 1.21793C8.3421 2.022 6.57828 3.20055 5.09254 4.68629C3.6068 6.17203 2.42825 7.93586 1.62418 9.87707C0.820102 11.8183 0.40625 13.8989 0.40625 16H8.40625C8.40625 14.9494 8.61318 13.9091 9.01521 12.9385C9.41725 11.9679 10.0065 11.086 10.7494 10.3431C11.4923 9.60028 12.3742 9.011 13.3448 8.60896C14.3154 8.20693 15.3557 8 16.4062 8V0Z" fill="#5CE1E6"/>
<circle cx="16.4062" cy="16" r="5" fill="#5CE1E6"/>
<path d="M21.4062 16C21.4062 15.3434 21.2769 14.6932 21.0256 14.0866C20.7744 13.48 20.4061 12.9288 19.9418 12.4645C19.4775 12.0002 18.9263 11.6319 18.3197 11.3806C17.713 11.1293 17.0629 11 16.4062 11C15.7496 11 15.0995 11.1293 14.4928 11.3806C13.8862 11.6319 13.335 12.0002 12.8707 12.4645C12.4064 12.9288 12.0381 13.48 11.7869 14.0866C11.5356 14.6932 11.4062 15.3434 11.4063 16L16.4062 16H21.4062Z" fill="white"/>
</svg>
