<svg width="126" height="37" viewBox="0 0 126 37" fill="none" xmlns="http://www.w3.org/2000/svg">
<path d="M7.59314 26.6471H8.76961H9.94608V25.4706V24.2941H8.76961H7.59314V25.4706V26.6471ZM5.2402 24.2941H6.41667H7.59314V23.1176V21.9412H6.41667H5.2402V23.1176V24.2941ZM2.88726 21.9412H4.06373H5.2402V20.7647V19.5882H4.06373H2.88726V20.7647V21.9412ZM0.534314 19.5882H1.71078H2.88726V18.4118V17.2353H1.71078H0.534314V18.4118V19.5882ZM2.88726 17.2353H4.06373H5.2402V16.0588V14.8824H4.06373H2.88726V16.0588V17.2353ZM5.2402 14.8824H6.41667H7.59314V13.7059V12.5294H6.41667H5.2402V13.7059V14.8824ZM7.59314 12.5294H8.76961H9.94608V11.3529V10.1765H8.76961H7.59314V11.3529V12.5294ZM15.8422 29H17.0187H18.1952V27.8235V26.6471V25.4706V24.2941V23.1176V21.9412V20.7647V19.5882V18.4118V17.2353V16.0588V14.8824V13.7059V12.5294V11.3529V10.1765H19.3716V11.3529V12.5294H20.5481V13.7059V14.8824H21.7246V16.0588V17.2353H22.901V18.4118V19.5882H24.0775H25.254V18.4118V17.2353H26.4305V16.0588V14.8824H27.6069V13.7059V12.5294H28.7834V11.3529V10.1765H29.9599V11.3529V12.5294V13.7059V14.8824V16.0588V17.2353V18.4118V19.5882V20.7647V21.9412V23.1176V24.2941V25.4706V26.6471V27.8235V29H31.1363H32.3128V27.8235V26.6471V25.4706V24.2941V23.1176V21.9412V20.7647V19.5882V18.4118V17.2353V16.0588V14.8824V13.7059V12.5294V11.3529V10.1765V9V7.82353V6.64706V5.47059V4.29412V3.11765H31.1363H29.9599V4.29412V5.47059V6.64706V7.82353H28.7834H27.6069V9V10.1765H26.4305V11.3529V12.5294H25.254V13.7059V14.8824H24.0775H22.901V13.7059V12.5294H21.7246V11.3529V10.1765H20.5481V9V7.82353H19.3716H18.1952V6.64706V5.47059V4.29412V3.11765H17.0187H15.8422V4.29412V5.47059V6.64706V7.82353V9V10.1765V11.3529V12.5294V13.7059V14.8824V16.0588V17.2353V18.4118V19.5882V20.7647V21.9412V23.1176V24.2941V25.4706V26.6471V27.8235V29ZM35.8376 5.47059H37.0141H38.1906V6.64706V7.82353V9V10.1765V11.3529V12.5294V13.7059V14.8824V16.0588V17.2353V18.4118V19.5882V20.7647V21.9412V23.1176V24.2941V25.4706V26.6471H37.0141H35.8376V27.8235V29H37.0141H38.1906H39.367H40.5435H41.72H42.8964V27.8235V26.6471H41.72H40.5435V25.4706V24.2941V23.1176V21.9412V20.7647V19.5882V18.4118V17.2353V16.0588V14.8824V13.7059V12.5294V11.3529V10.1765V9V7.82353V6.64706V5.47059H41.72H42.8964V4.29412V3.11765H41.72H40.5435H39.367H38.1906H37.0141H35.8376V4.29412V5.47059ZM46.4282 29H47.6046H48.7811H49.9576H51.134H52.3105H53.487H54.6635H55.8399V27.8235V26.6471H54.6635H53.487H52.3105H51.134H49.9576H48.7811V25.4706V24.2941V23.1176V21.9412V20.7647V19.5882V18.4118V17.2353V16.0588V14.8824V13.7059V12.5294V11.3529V10.1765V9V7.82353V6.64706V5.47059V4.29412V3.11765H47.6046H46.4282V4.29412V5.47059V6.64706V7.82353V9V10.1765V11.3529V12.5294V13.7059V14.8824V16.0588V17.2353V18.4118V19.5882V20.7647V21.9412V23.1176V24.2941V25.4706V26.6471V27.8235V29ZM59.3578 29C59.7794 29 60.1716 29 60.5343 29C60.8971 29 61.2892 29 61.7108 29C61.7108 28.5686 61.7108 28.1765 61.7108 27.8235C61.7108 27.4706 61.7108 27.0784 61.7108 26.6471C61.2892 26.6471 60.8971 26.6471 60.5343 26.6471C60.1716 26.6471 59.7794 26.6471 59.3578 26.6471C59.3578 27.0784 59.3578 27.4706 59.3578 27.8235C59.3578 28.1765 59.3578 28.5686 59.3578 29ZM59.3578 29C59.7794 29 60.1716 29 60.5343 29C60.8971 29 61.2892 29 61.7108 29C61.7108 28.5686 61.7108 28.1765 61.7108 27.8235C61.7108 27.4706 61.7108 27.0784 61.7108 26.6471C61.2892 26.6471 60.8971 26.6471 60.5343 26.6471C60.1716 26.6471 59.7794 26.6471 59.3578 26.6471C59.3578 27.0784 59.3578 27.4706 59.3578 27.8235C59.3578 28.1765 59.3578 28.5686 59.3578 29ZM59.3578 29C59.7794 29 60.1716 29 60.5343 29C60.8971 29 61.2892 29 61.7108 29C61.7108 28.5686 61.7108 28.1765 61.7108 27.8235C61.7108 27.4706 61.7108 27.0784 61.7108 26.6471C61.2892 26.6471 60.8971 26.6471 60.5343 26.6471C60.1716 26.6471 59.7794 26.6471 59.3578 26.6471C59.3578 27.0784 59.3578 27.4706 59.3578 27.8235C59.3578 28.1765 59.3578 28.5686 59.3578 29ZM59.3578 29C59.7794 29 60.1716 29 60.5343 29C60.8971 29 61.2892 29 61.7108 29C61.7108 28.5686 61.7108 28.1765 61.7108 27.8235C61.7108 27.4706 61.7108 27.0784 61.7108 26.6471C61.2892 26.6471 60.8971 26.6471 60.5343 26.6471C60.1716 26.6471 59.7794 26.6471 59.3578 26.6471C59.3578 27.0784 59.3578 27.4706 59.3578 27.8235C59.3578 28.1765 59.3578 28.5686 59.3578 29ZM59.3578 29C59.7794 29 60.1716 29 60.5343 29C60.8971 29 61.2892 29 61.7108 29C61.7108 28.5686 61.7108 28.1765 61.7108 27.8235C61.7108 27.4706 61.7108 27.0784 61.7108 26.6471C61.2892 26.6471 60.8971 26.6471 60.5343 26.6471C60.1716 26.6471 59.7794 26.6471 59.3578 26.6471C59.3578 27.0784 59.3578 27.4706 59.3578 27.8235C59.3578 28.1765 59.3578 28.5686 59.3578 29ZM59.3578 29C59.7794 29 60.1716 29 60.5343 29C60.8971 29 61.2892 29 61.7108 29C61.7108 28.5686 61.7108 28.1765 61.7108 27.8235C61.7108 27.4706 61.7108 27.0784 61.7108 26.6471C61.2892 26.6471 60.8971 26.6471 60.5343 26.6471C60.1716 26.6471 59.7794 26.6471 59.3578 26.6471C59.3578 27.0784 59.3578 27.4706 59.3578 27.8235C59.3578 28.1765 59.3578 28.5686 59.3578 29ZM59.3578 29C59.7794 29 60.1716 29 60.5343 29C60.8971 29 61.2892 29 61.7108 29C61.7108 28.5686 61.7108 28.1765 61.7108 27.8235C61.7108 27.4706 61.7108 27.0784 61.7108 26.6471C61.2892 26.6471 60.8971 26.6471 60.5343 26.6471C60.1716 26.6471 59.7794 26.6471 59.3578 26.6471C59.3578 27.0784 59.3578 27.4706 59.3578 27.8235C59.3578 28.1765 59.3578 28.5686 59.3578 29ZM59.3578 29C59.7794 29 60.1716 29 60.5343 29C60.8971 29 61.2892 29 61.7108 29C61.7108 28.5686 61.7108 28.1765 61.7108 27.8235C61.7108 27.4706 61.7108 27.0784 61.7108 26.6471C61.2892 26.6471 60.8971 26.6471 60.5343 26.6471C60.1716 26.6471 59.7794 26.6471 59.3578 26.6471C59.3578 27.0784 59.3578 27.4706 59.3578 27.8235C59.3578 28.1765 59.3578 28.5686 59.3578 29ZM59.3578 29C59.7794 29 60.1716 29 60.5343 29C60.8971 29 61.2892 29 61.7108 29C61.7108 28.5686 61.7108 28.1765 61.7108 27.8235C61.7108 27.4706 61.7108 27.0784 61.7108 26.6471C61.2892 26.6471 60.8971 26.6471 60.5343 26.6471C60.1716 26.6471 59.7794 26.6471 59.3578 26.6471C59.3578 27.0784 59.3578 27.4706 59.3578 27.8235C59.3578 28.1765 59.3578 28.5686 59.3578 29ZM68.7696 29C69.1912 29 69.5833 29 69.9461 29C70.3088 29 70.701 29 71.1225 29C71.1225 28.5686 71.1225 28.1765 71.1225 27.8235C71.1225 27.4706 71.1225 27.0784 71.1225 26.6471C70.701 26.6471 70.3088 26.6471 69.9461 26.6471C69.5833 26.6471 69.1912 26.6471 68.7696 26.6471C68.7696 27.0784 68.7696 27.4706 68.7696 27.8235C68.7696 28.1765 68.7696 28.5686 68.7696 29ZM68.7696 29C69.1912 29 69.5833 29 69.9461 29C70.3088 29 70.701 29 71.1225 29C71.1225 28.5686 71.1225 28.1765 71.1225 27.8235C71.1225 27.4706 71.1225 27.0784 71.1225 26.6471C70.701 26.6471 70.3088 26.6471 69.9461 26.6471C69.5833 26.6471 69.1912 26.6471 68.7696 26.6471C68.7696 27.0784 68.7696 27.4706 68.7696 27.8235C68.7696 28.1765 68.7696 28.5686 68.7696 29ZM68.7696 29C69.1912 29 69.5833 29 69.9461 29C70.3088 29 70.701 29 71.1225 29C71.1225 28.5686 71.1225 28.1765 71.1225 27.8235C71.1225 27.4706 71.1225 27.0784 71.1225 26.6471C70.701 26.6471 70.3088 26.6471 69.9461 26.6471C69.5833 26.6471 69.1912 26.6471 68.7696 26.6471C68.7696 27.0784 68.7696 27.4706 68.7696 27.8235C68.7696 28.1765 68.7696 28.5686 68.7696 29ZM68.7696 29C69.1912 29 69.5833 29 69.9461 29C70.3088 29 70.701 29 71.1225 29C71.1225 28.5686 71.1225 28.1765 71.1225 27.8235C71.1225 27.4706 71.1225 27.0784 71.1225 26.6471C70.701 26.6471 70.3088 26.6471 69.9461 26.6471C69.5833 26.6471 69.1912 26.6471 68.7696 26.6471C68.7696 27.0784 68.7696 27.4706 68.7696 27.8235C68.7696 28.1765 68.7696 28.5686 68.7696 29ZM68.7696 29C69.1912 29 69.5833 29 69.9461 29C70.3088 29 70.701 29 71.1225 29C71.1225 28.5686 71.1225 28.1765 71.1225 27.8235C71.1225 27.4706 71.1225 27.0784 71.1225 26.6471C70.701 26.6471 70.3088 26.6471 69.9461 26.6471C69.5833 26.6471 69.1912 26.6471 68.7696 26.6471C68.7696 27.0784 68.7696 27.4706 68.7696 27.8235C68.7696 28.1765 68.7696 28.5686 68.7696 29ZM68.7696 29C69.1912 29 69.5833 29 69.9461 29C70.3088 29 70.701 29 71.1225 29C71.1225 28.5686 71.1225 28.1765 71.1225 27.8235C71.1225 27.4706 71.1225 27.0784 71.1225 26.6471C70.701 26.6471 70.3088 26.6471 69.9461 26.6471C69.5833 26.6471 69.1912 26.6471 68.7696 26.6471C68.7696 27.0784 68.7696 27.4706 68.7696 27.8235C68.7696 28.1765 68.7696 28.5686 68.7696 29ZM68.7696 29C69.1912 29 69.5833 29 69.9461 29C70.3088 29 70.701 29 71.1225 29C71.1225 28.5686 71.1225 28.1765 71.1225 27.8235C71.1225 27.4706 71.1225 27.0784 71.1225 26.6471C70.701 26.6471 70.3088 26.6471 69.9461 26.6471C69.5833 26.6471 69.1912 26.6471 68.7696 26.6471C68.7696 27.0784 68.7696 27.4706 68.7696 27.8235C68.7696 28.1765 68.7696 28.5686 68.7696 29ZM68.7696 29C69.1912 29 69.5833 29 69.9461 29C70.3088 29 70.701 29 71.1225 29C71.1225 28.5686 71.1225 28.1765 71.1225 27.8235C71.1225 27.4706 71.1225 27.0784 71.1225 26.6471C70.701 26.6471 70.3088 26.6471 69.9461 26.6471C69.5833 26.6471 69.1912 26.6471 68.7696 26.6471C68.7696 27.0784 68.7696 27.4706 68.7696 27.8235C68.7696 28.1765 68.7696 28.5686 68.7696 29ZM68.7696 29C69.1912 29 69.5833 29 69.9461 29C70.3088 29 70.701 29 71.1225 29C71.1225 28.5686 71.1225 28.1765 71.1225 27.8235C71.1225 27.4706 71.1225 27.0784 71.1225 26.6471C70.701 26.6471 70.3088 26.6471 69.9461 26.6471C69.5833 26.6471 69.1912 26.6471 68.7696 26.6471C68.7696 27.0784 68.7696 27.4706 68.7696 27.8235C68.7696 28.1765 68.7696 28.5686 68.7696 29ZM59.3578 26.6471C59.7794 26.6471 60.1716 26.6471 60.5343 26.6471C60.8971 26.6471 61.2892 26.6471 61.7108 26.6471C61.7108 26.2157 61.7108 25.8235 61.7108 25.4706C61.7108 25.1176 61.7108 24.7255 61.7108 24.2941C61.2892 24.2941 60.8971 24.2941 60.5343 24.2941C60.1716 24.2941 59.7794 24.2941 59.3578 24.2941C59.3578 24.7255 59.3578 25.1176 59.3578 25.4706C59.3578 25.8235 59.3578 26.2157 59.3578 26.6471ZM59.3578 26.6471C59.7794 26.6471 60.1716 26.6471 60.5343 26.6471C60.8971 26.6471 61.2892 26.6471 61.7108 26.6471C61.7108 26.2157 61.7108 25.8235 61.7108 25.4706C61.7108 25.1176 61.7108 24.7255 61.7108 24.2941C61.2892 24.2941 60.8971 24.2941 60.5343 24.2941C60.1716 24.2941 59.7794 24.2941 59.3578 24.2941C59.3578 24.7255 59.3578 25.1176 59.3578 25.4706C59.3578 25.8235 59.3578 26.2157 59.3578 26.6471ZM59.3578 26.6471C59.7794 26.6471 60.1716 26.6471 60.5343 26.6471C60.8971 26.6471 61.2892 26.6471 61.7108 26.6471C61.7108 26.2157 61.7108 25.8235 61.7108 25.4706C61.7108 25.1176 61.7108 24.7255 61.7108 24.2941C61.2892 24.2941 60.8971 24.2941 60.5343 24.2941C60.1716 24.2941 59.7794 24.2941 59.3578 24.2941C59.3578 24.7255 59.3578 25.1176 59.3578 25.4706C59.3578 25.8235 59.3578 26.2157 59.3578 26.6471ZM59.3578 26.6471C59.7794 26.6471 60.1716 26.6471 60.5343 26.6471C60.8971 26.6471 61.2892 26.6471 61.7108 26.6471C61.7108 26.2157 61.7108 25.8235 61.7108 25.4706C61.7108 25.1176 61.7108 24.7255 61.7108 24.2941C61.2892 24.2941 60.8971 24.2941 60.5343 24.2941C60.1716 24.2941 59.7794 24.2941 59.3578 24.2941C59.3578 24.7255 59.3578 25.1176 59.3578 25.4706C59.3578 25.8235 59.3578 26.2157 59.3578 26.6471ZM59.3578 26.6471C59.7794 26.6471 60.1716 26.6471 60.5343 26.6471C60.8971 26.6471 61.2892 26.6471 61.7108 26.6471C61.7108 26.2157 61.7108 25.8235 61.7108 25.4706C61.7108 25.1176 61.7108 24.7255 61.7108 24.2941C61.2892 24.2941 60.8971 24.2941 60.5343 24.2941C60.1716 24.2941 59.7794 24.2941 59.3578 24.2941C59.3578 24.7255 59.3578 25.1176 59.3578 25.4706C59.3578 25.8235 59.3578 26.2157 59.3578 26.6471ZM59.3578 26.6471C59.7794 26.6471 60.1716 26.6471 60.5343 26.6471C60.8971 26.6471 61.2892 26.6471 61.7108 26.6471C61.7108 26.2157 61.7108 25.8235 61.7108 25.4706C61.7108 25.1176 61.7108 24.7255 61.7108 24.2941C61.2892 24.2941 60.8971 24.2941 60.5343 24.2941C60.1716 24.2941 59.7794 24.2941 59.3578 24.2941C59.3578 24.7255 59.3578 25.1176 59.3578 25.4706C59.3578 25.8235 59.3578 26.2157 59.3578 26.6471ZM59.3578 26.6471C59.7794 26.6471 60.1716 26.6471 60.5343 26.6471C60.8971 26.6471 61.2892 26.6471 61.7108 26.6471C61.7108 26.2157 61.7108 25.8235 61.7108 25.4706C61.7108 25.1176 61.7108 24.7255 61.7108 24.2941C61.2892 24.2941 60.8971 24.2941 60.5343 24.2941C60.1716 24.2941 59.7794 24.2941 59.3578 24.2941C59.3578 24.7255 59.3578 25.1176 59.3578 25.4706C59.3578 25.8235 59.3578 26.2157 59.3578 26.6471ZM59.3578 26.6471C59.7794 26.6471 60.1716 26.6471 60.5343 26.6471C60.8971 26.6471 61.2892 26.6471 61.7108 26.6471C61.7108 26.2157 61.7108 25.8235 61.7108 25.4706C61.7108 25.1176 61.7108 24.7255 61.7108 24.2941C61.2892 24.2941 60.8971 24.2941 60.5343 24.2941C60.1716 24.2941 59.7794 24.2941 59.3578 24.2941C59.3578 24.7255 59.3578 25.1176 59.3578 25.4706C59.3578 25.8235 59.3578 26.2157 59.3578 26.6471ZM59.3578 26.6471C59.7794 26.6471 60.1716 26.6471 60.5343 26.6471C60.8971 26.6471 61.2892 26.6471 61.7108 26.6471C61.7108 26.2157 61.7108 25.8235 61.7108 25.4706C61.7108 25.1176 61.7108 24.7255 61.7108 24.2941C61.2892 24.2941 60.8971 24.2941 60.5343 24.2941C60.1716 24.2941 59.7794 24.2941 59.3578 24.2941C59.3578 24.7255 59.3578 25.1176 59.3578 25.4706C59.3578 25.8235 59.3578 26.2157 59.3578 26.6471ZM68.7696 26.6471C69.1912 26.6471 69.5833 26.6471 69.9461 26.6471C70.3088 26.6471 70.701 26.6471 71.1225 26.6471C71.1225 26.2157 71.1225 25.8235 71.1225 25.4706C71.1225 25.1176 71.1225 24.7255 71.1225 24.2941C70.701 24.2941 70.3088 24.2941 69.9461 24.2941C69.5833 24.2941 69.1912 24.2941 68.7696 24.2941C68.7696 24.7255 68.7696 25.1176 68.7696 25.4706C68.7696 25.8235 68.7696 26.2157 68.7696 26.6471ZM68.7696 26.6471C69.1912 26.6471 69.5833 26.6471 69.9461 26.6471C70.3088 26.6471 70.701 26.6471 71.1225 26.6471C71.1225 26.2157 71.1225 25.8235 71.1225 25.4706C71.1225 25.1176 71.1225 24.7255 71.1225 24.2941C70.701 24.2941 70.3088 24.2941 69.9461 24.2941C69.5833 24.2941 69.1912 24.2941 68.7696 24.2941C68.7696 24.7255 68.7696 25.1176 68.7696 25.4706C68.7696 25.8235 68.7696 26.2157 68.7696 26.6471ZM68.7696 26.6471C69.1912 26.6471 69.5833 26.6471 69.9461 26.6471C70.3088 26.6471 70.701 26.6471 71.1225 26.6471C71.1225 26.2157 71.1225 25.8235 71.1225 25.4706C71.1225 25.1176 71.1225 24.7255 71.1225 24.2941C70.701 24.2941 70.3088 24.2941 69.9461 24.2941C69.5833 24.2941 69.1912 24.2941 68.7696 24.2941C68.7696 24.7255 68.7696 25.1176 68.7696 25.4706C68.7696 25.8235 68.7696 26.2157 68.7696 26.6471ZM68.7696 26.6471C69.1912 26.6471 69.5833 26.6471 69.9461 26.6471C70.3088 26.6471 70.701 26.6471 71.1225 26.6471C71.1225 26.2157 71.1225 25.8235 71.1225 25.4706C71.1225 25.1176 71.1225 24.7255 71.1225 24.2941C70.701 24.2941 70.3088 24.2941 69.9461 24.2941C69.5833 24.2941 69.1912 24.2941 68.7696 24.2941C68.7696 24.7255 68.7696 25.1176 68.7696 25.4706C68.7696 25.8235 68.7696 26.2157 68.7696 26.6471ZM68.7696 26.6471C69.1912 26.6471 69.5833 26.6471 69.9461 26.6471C70.3088 26.6471 70.701 26.6471 71.1225 26.6471C71.1225 26.2157 71.1225 25.8235 71.1225 25.4706C71.1225 25.1176 71.1225 24.7255 71.1225 24.2941C70.701 24.2941 70.3088 24.2941 69.9461 24.2941C69.5833 24.2941 69.1912 24.2941 68.7696 24.2941C68.7696 24.7255 68.7696 25.1176 68.7696 25.4706C68.7696 25.8235 68.7696 26.2157 68.7696 26.6471ZM68.7696 26.6471C69.1912 26.6471 69.5833 26.6471 69.9461 26.6471C70.3088 26.6471 70.701 26.6471 71.1225 26.6471C71.1225 26.2157 71.1225 25.8235 71.1225 25.4706C71.1225 25.1176 71.1225 24.7255 71.1225 24.2941C70.701 24.2941 70.3088 24.2941 69.9461 24.2941C69.5833 24.2941 69.1912 24.2941 68.7696 24.2941C68.7696 24.7255 68.7696 25.1176 68.7696 25.4706C68.7696 25.8235 68.7696 26.2157 68.7696 26.6471ZM68.7696 26.6471C69.1912 26.6471 69.5833 26.6471 69.9461 26.6471C70.3088 26.6471 70.701 26.6471 71.1225 26.6471C71.1225 26.2157 71.1225 25.8235 71.1225 25.4706C71.1225 25.1176 71.1225 24.7255 71.1225 24.2941C70.701 24.2941 70.3088 24.2941 69.9461 24.2941C69.5833 24.2941 69.1912 24.2941 68.7696 24.2941C68.7696 24.7255 68.7696 25.1176 68.7696 25.4706C68.7696 25.8235 68.7696 26.2157 68.7696 26.6471ZM68.7696 26.6471C69.1912 26.6471 69.5833 26.6471 69.9461 26.6471C70.3088 26.6471 70.701 26.6471 71.1225 26.6471C71.1225 26.2157 71.1225 25.8235 71.1225 25.4706C71.1225 25.1176 71.1225 24.7255 71.1225 24.2941C70.701 24.2941 70.3088 24.2941 69.9461 24.2941C69.5833 24.2941 69.1912 24.2941 68.7696 24.2941C68.7696 24.7255 68.7696 25.1176 68.7696 25.4706C68.7696 25.8235 68.7696 26.2157 68.7696 26.6471ZM68.7696 26.6471C69.1912 26.6471 69.5833 26.6471 69.9461 26.6471C70.3088 26.6471 70.701 26.6471 71.1225 26.6471C71.1225 26.2157 71.1225 25.8235 71.1225 25.4706C71.1225 25.1176 71.1225 24.7255 71.1225 24.2941C70.701 24.2941 70.3088 24.2941 69.9461 24.2941C69.5833 24.2941 69.1912 24.2941 68.7696 24.2941C68.7696 24.7255 68.7696 25.1176 68.7696 25.4706C68.7696 25.8235 68.7696 26.2157 68.7696 26.6471ZM59.3578 24.2941C59.7794 24.2941 60.1716 24.2941 60.5343 24.2941C60.8971 24.2941 61.2892 24.2941 61.7108 24.2941C61.7108 23.8627 61.7108 23.4706 61.7108 23.1176C61.7108 22.7647 61.7108 22.3725 61.7108 21.9412C61.2892 21.9412 60.8971 21.9412 60.5343 21.9412C60.1716 21.9412 59.7794 21.9412 59.3578 21.9412C59.3578 22.3725 59.3578 22.7647 59.3578 23.1176C59.3578 23.4706 59.3578 23.8627 59.3578 24.2941ZM59.3578 24.2941C59.7794 24.2941 60.1716 24.2941 60.5343 24.2941C60.8971 24.2941 61.2892 24.2941 61.7108 24.2941C61.7108 23.8627 61.7108 23.4706 61.7108 23.1176C61.7108 22.7647 61.7108 22.3725 61.7108 21.9412C61.2892 21.9412 60.8971 21.9412 60.5343 21.9412C60.1716 21.9412 59.7794 21.9412 59.3578 21.9412C59.3578 22.3725 59.3578 22.7647 59.3578 23.1176C59.3578 23.4706 59.3578 23.8627 59.3578 24.2941ZM59.3578 24.2941C59.7794 24.2941 60.1716 24.2941 60.5343 24.2941C60.8971 24.2941 61.2892 24.2941 61.7108 24.2941C61.7108 23.8627 61.7108 23.4706 61.7108 23.1176C61.7108 22.7647 61.7108 22.3725 61.7108 21.9412C61.2892 21.9412 60.8971 21.9412 60.5343 21.9412C60.1716 21.9412 59.7794 21.9412 59.3578 21.9412C59.3578 22.3725 59.3578 22.7647 59.3578 23.1176C59.3578 23.4706 59.3578 23.8627 59.3578 24.2941ZM59.3578 24.2941C59.7794 24.2941 60.1716 24.2941 60.5343 24.2941C60.8971 24.2941 61.2892 24.2941 61.7108 24.2941C61.7108 23.8627 61.7108 23.4706 61.7108 23.1176C61.7108 22.7647 61.7108 22.3725 61.7108 21.9412C61.2892 21.9412 60.8971 21.9412 60.5343 21.9412C60.1716 21.9412 59.7794 21.9412 59.3578 21.9412C59.3578 22.3725 59.3578 22.7647 59.3578 23.1176C59.3578 23.4706 59.3578 23.8627 59.3578 24.2941ZM59.3578 24.2941C59.7794 24.2941 60.1716 24.2941 60.5343 24.2941C60.8971 24.2941 61.2892 24.2941 61.7108 24.2941C61.7108 23.8627 61.7108 23.4706 61.7108 23.1176C61.7108 22.7647 61.7108 22.3725 61.7108 21.9412C61.2892 21.9412 60.8971 21.9412 60.5343 21.9412C60.1716 21.9412 59.7794 21.9412 59.3578 21.9412C59.3578 22.3725 59.3578 22.7647 59.3578 23.1176C59.3578 23.4706 59.3578 23.8627 59.3578 24.2941ZM59.3578 24.2941C59.7794 24.2941 60.1716 24.2941 60.5343 24.2941C60.8971 24.2941 61.2892 24.2941 61.7108 24.2941C61.7108 23.8627 61.7108 23.4706 61.7108 23.1176C61.7108 22.7647 61.7108 22.3725 61.7108 21.9412C61.2892 21.9412 60.8971 21.9412 60.5343 21.9412C60.1716 21.9412 59.7794 21.9412 59.3578 21.9412C59.3578 22.3725 59.3578 22.7647 59.3578 23.1176C59.3578 23.4706 59.3578 23.8627 59.3578 24.2941ZM59.3578 24.2941C59.7794 24.2941 60.1716 24.2941 60.5343 24.2941C60.8971 24.2941 61.2892 24.2941 61.7108 24.2941C61.7108 23.8627 61.7108 23.4706 61.7108 23.1176C61.7108 22.7647 61.7108 22.3725 61.7108 21.9412C61.2892 21.9412 60.8971 21.9412 60.5343 21.9412C60.1716 21.9412 59.7794 21.9412 59.3578 21.9412C59.3578 22.3725 59.3578 22.7647 59.3578 23.1176C59.3578 23.4706 59.3578 23.8627 59.3578 24.2941ZM59.3578 24.2941C59.7794 24.2941 60.1716 24.2941 60.5343 24.2941C60.8971 24.2941 61.2892 24.2941 61.7108 24.2941C61.7108 23.8627 61.7108 23.4706 61.7108 23.1176C61.7108 22.7647 61.7108 22.3725 61.7108 21.9412C61.2892 21.9412 60.8971 21.9412 60.5343 21.9412C60.1716 21.9412 59.7794 21.9412 59.3578 21.9412C59.3578 22.3725 59.3578 22.7647 59.3578 23.1176C59.3578 23.4706 59.3578 23.8627 59.3578 24.2941ZM59.3578 24.2941C59.7794 24.2941 60.1716 24.2941 60.5343 24.2941C60.8971 24.2941 61.2892 24.2941 61.7108 24.2941C61.7108 23.8627 61.7108 23.4706 61.7108 23.1176C61.7108 22.7647 61.7108 22.3725 61.7108 21.9412C61.2892 21.9412 60.8971 21.9412 60.5343 21.9412C60.1716 21.9412 59.7794 21.9412 59.3578 21.9412C59.3578 22.3725 59.3578 22.7647 59.3578 23.1176C59.3578 23.4706 59.3578 23.8627 59.3578 24.2941ZM68.7696 24.2941C69.1912 24.2941 69.5833 24.2941 69.9461 24.2941C70.3088 24.2941 70.701 24.2941 71.1225 24.2941C71.1225 23.8627 71.1225 23.4706 71.1225 23.1176C71.1225 22.7647 71.1225 22.3725 71.1225 21.9412C70.701 21.9412 70.3088 21.9412 69.9461 21.9412C69.5833 21.9412 69.1912 21.9412 68.7696 21.9412C68.7696 22.3725 68.7696 22.7647 68.7696 23.1176C68.7696 23.4706 68.7696 23.8627 68.7696 24.2941ZM68.7696 24.2941C69.1912 24.2941 69.5833 24.2941 69.9461 24.2941C70.3088 24.2941 70.701 24.2941 71.1225 24.2941C71.1225 23.8627 71.1225 23.4706 71.1225 23.1176C71.1225 22.7647 71.1225 22.3725 71.1225 21.9412C70.701 21.9412 70.3088 21.9412 69.9461 21.9412C69.5833 21.9412 69.1912 21.9412 68.7696 21.9412C68.7696 22.3725 68.7696 22.7647 68.7696 23.1176C68.7696 23.4706 68.7696 23.8627 68.7696 24.2941ZM68.7696 24.2941C69.1912 24.2941 69.5833 24.2941 69.9461 24.2941C70.3088 24.2941 70.701 24.2941 71.1225 24.2941C71.1225 23.8627 71.1225 23.4706 71.1225 23.1176C71.1225 22.7647 71.1225 22.3725 71.1225 21.9412C70.701 21.9412 70.3088 21.9412 69.9461 21.9412C69.5833 21.9412 69.1912 21.9412 68.7696 21.9412C68.7696 22.3725 68.7696 22.7647 68.7696 23.1176C68.7696 23.4706 68.7696 23.8627 68.7696 24.2941ZM68.7696 24.2941C69.1912 24.2941 69.5833 24.2941 69.9461 24.2941C70.3088 24.2941 70.701 24.2941 71.1225 24.2941C71.1225 23.8627 71.1225 23.4706 71.1225 23.1176C71.1225 22.7647 71.1225 22.3725 71.1225 21.9412C70.701 21.9412 70.3088 21.9412 69.9461 21.9412C69.5833 21.9412 69.1912 21.9412 68.7696 21.9412C68.7696 22.3725 68.7696 22.7647 68.7696 23.1176C68.7696 23.4706 68.7696 23.8627 68.7696 24.2941ZM68.7696 24.2941C69.1912 24.2941 69.5833 24.2941 69.9461 24.2941C70.3088 24.2941 70.701 24.2941 71.1225 24.2941C71.1225 23.8627 71.1225 23.4706 71.1225 23.1176C71.1225 22.7647 71.1225 22.3725 71.1225 21.9412C70.701 21.9412 70.3088 21.9412 69.9461 21.9412C69.5833 21.9412 69.1912 21.9412 68.7696 21.9412C68.7696 22.3725 68.7696 22.7647 68.7696 23.1176C68.7696 23.4706 68.7696 23.8627 68.7696 24.2941ZM68.7696 24.2941C69.1912 24.2941 69.5833 24.2941 69.9461 24.2941C70.3088 24.2941 70.701 24.2941 71.1225 24.2941C71.1225 23.8627 71.1225 23.4706 71.1225 23.1176C71.1225 22.7647 71.1225 22.3725 71.1225 21.9412C70.701 21.9412 70.3088 21.9412 69.9461 21.9412C69.5833 21.9412 69.1912 21.9412 68.7696 21.9412C68.7696 22.3725 68.7696 22.7647 68.7696 23.1176C68.7696 23.4706 68.7696 23.8627 68.7696 24.2941ZM68.7696 24.2941C69.1912 24.2941 69.5833 24.2941 69.9461 24.2941C70.3088 24.2941 70.701 24.2941 71.1225 24.2941C71.1225 23.8627 71.1225 23.4706 71.1225 23.1176C71.1225 22.7647 71.1225 22.3725 71.1225 21.9412C70.701 21.9412 70.3088 21.9412 69.9461 21.9412C69.5833 21.9412 69.1912 21.9412 68.7696 21.9412C68.7696 22.3725 68.7696 22.7647 68.7696 23.1176C68.7696 23.4706 68.7696 23.8627 68.7696 24.2941ZM68.7696 24.2941C69.1912 24.2941 69.5833 24.2941 69.9461 24.2941C70.3088 24.2941 70.701 24.2941 71.1225 24.2941C71.1225 23.8627 71.1225 23.4706 71.1225 23.1176C71.1225 22.7647 71.1225 22.3725 71.1225 21.9412C70.701 21.9412 70.3088 21.9412 69.9461 21.9412C69.5833 21.9412 69.1912 21.9412 68.7696 21.9412C68.7696 22.3725 68.7696 22.7647 68.7696 23.1176C68.7696 23.4706 68.7696 23.8627 68.7696 24.2941ZM68.7696 24.2941C69.1912 24.2941 69.5833 24.2941 69.9461 24.2941C70.3088 24.2941 70.701 24.2941 71.1225 24.2941C71.1225 23.8627 71.1225 23.4706 71.1225 23.1176C71.1225 22.7647 71.1225 22.3725 71.1225 21.9412C70.701 21.9412 70.3088 21.9412 69.9461 21.9412C69.5833 21.9412 69.1912 21.9412 68.7696 21.9412C68.7696 22.3725 68.7696 22.7647 68.7696 23.1176C68.7696 23.4706 68.7696 23.8627 68.7696 24.2941ZM59.3578 21.9412C59.7794 21.9412 60.1716 21.9412 60.5343 21.9412C60.8971 21.9412 61.2892 21.9412 61.7108 21.9412C61.7108 21.5098 61.7108 21.1176 61.7108 20.7647C61.7108 20.4118 61.7108 20.0196 61.7108 19.5882C61.2892 19.5882 60.8971 19.5882 60.5343 19.5882C60.1716 19.5882 59.7794 19.5882 59.3578 19.5882C59.3578 20.0196 59.3578 20.4118 59.3578 20.7647C59.3578 21.1176 59.3578 21.5098 59.3578 21.9412ZM59.3578 21.9412C59.7794 21.9412 60.1716 21.9412 60.5343 21.9412C60.8971 21.9412 61.2892 21.9412 61.7108 21.9412C61.7108 21.5098 61.7108 21.1176 61.7108 20.7647C61.7108 20.4118 61.7108 20.0196 61.7108 19.5882C61.2892 19.5882 60.8971 19.5882 60.5343 19.5882C60.1716 19.5882 59.7794 19.5882 59.3578 19.5882C59.3578 20.0196 59.3578 20.4118 59.3578 20.7647C59.3578 21.1176 59.3578 21.5098 59.3578 21.9412ZM59.3578 21.9412C59.7794 21.9412 60.1716 21.9412 60.5343 21.9412C60.8971 21.9412 61.2892 21.9412 61.7108 21.9412C61.7108 21.5098 61.7108 21.1176 61.7108 20.7647C61.7108 20.4118 61.7108 20.0196 61.7108 19.5882C61.2892 19.5882 60.8971 19.5882 60.5343 19.5882C60.1716 19.5882 59.7794 19.5882 59.3578 19.5882C59.3578 20.0196 59.3578 20.4118 59.3578 20.7647C59.3578 21.1176 59.3578 21.5098 59.3578 21.9412ZM59.3578 21.9412C59.7794 21.9412 60.1716 21.9412 60.5343 21.9412C60.8971 21.9412 61.2892 21.9412 61.7108 21.9412C61.7108 21.5098 61.7108 21.1176 61.7108 20.7647C61.7108 20.4118 61.7108 20.0196 61.7108 19.5882C61.2892 19.5882 60.8971 19.5882 60.5343 19.5882C60.1716 19.5882 59.7794 19.5882 59.3578 19.5882C59.3578 20.0196 59.3578 20.4118 59.3578 20.7647C59.3578 21.1176 59.3578 21.5098 59.3578 21.9412ZM59.3578 21.9412C59.7794 21.9412 60.1716 21.9412 60.5343 21.9412C60.8971 21.9412 61.2892 21.9412 61.7108 21.9412C61.7108 21.5098 61.7108 21.1176 61.7108 20.7647C61.7108 20.4118 61.7108 20.0196 61.7108 19.5882C61.2892 19.5882 60.8971 19.5882 60.5343 19.5882C60.1716 19.5882 59.7794 19.5882 59.3578 19.5882C59.3578 20.0196 59.3578 20.4118 59.3578 20.7647C59.3578 21.1176 59.3578 21.5098 59.3578 21.9412ZM59.3578 21.9412C59.7794 21.9412 60.1716 21.9412 60.5343 21.9412C60.8971 21.9412 61.2892 21.9412 61.7108 21.9412C61.7108 21.5098 61.7108 21.1176 61.7108 20.7647C61.7108 20.4118 61.7108 20.0196 61.7108 19.5882C61.2892 19.5882 60.8971 19.5882 60.5343 19.5882C60.1716 19.5882 59.7794 19.5882 59.3578 19.5882C59.3578 20.0196 59.3578 20.4118 59.3578 20.7647C59.3578 21.1176 59.3578 21.5098 59.3578 21.9412ZM59.3578 21.9412C59.7794 21.9412 60.1716 21.9412 60.5343 21.9412C60.8971 21.9412 61.2892 21.9412 61.7108 21.9412C61.7108 21.5098 61.7108 21.1176 61.7108 20.7647C61.7108 20.4118 61.7108 20.0196 61.7108 19.5882C61.2892 19.5882 60.8971 19.5882 60.5343 19.5882C60.1716 19.5882 59.7794 19.5882 59.3578 19.5882C59.3578 20.0196 59.3578 20.4118 59.3578 20.7647C59.3578 21.1176 59.3578 21.5098 59.3578 21.9412ZM59.3578 21.9412C59.7794 21.9412 60.1716 21.9412 60.5343 21.9412C60.8971 21.9412 61.2892 21.9412 61.7108 21.9412C61.7108 21.5098 61.7108 21.1176 61.7108 20.7647C61.7108 20.4118 61.7108 20.0196 61.7108 19.5882C61.2892 19.5882 60.8971 19.5882 60.5343 19.5882C60.1716 19.5882 59.7794 19.5882 59.3578 19.5882C59.3578 20.0196 59.3578 20.4118 59.3578 20.7647C59.3578 21.1176 59.3578 21.5098 59.3578 21.9412ZM59.3578 21.9412C59.7794 21.9412 60.1716 21.9412 60.5343 21.9412C60.8971 21.9412 61.2892 21.9412 61.7108 21.9412C61.7108 21.5098 61.7108 21.1176 61.7108 20.7647C61.7108 20.4118 61.7108 20.0196 61.7108 19.5882C61.2892 19.5882 60.8971 19.5882 60.5343 19.5882C60.1716 19.5882 59.7794 19.5882 59.3578 19.5882C59.3578 20.0196 59.3578 20.4118 59.3578 20.7647C59.3578 21.1176 59.3578 21.5098 59.3578 21.9412ZM61.7108 21.9412C62.1324 21.9412 62.5245 21.9412 62.8873 21.9412C63.25 21.9412 63.6422 21.9412 64.0637 21.9412C64.0637 21.5098 64.0637 21.1176 64.0637 20.7647C64.0637 20.4118 64.0637 20.0196 64.0637 19.5882C63.6422 19.5882 63.25 19.5882 62.8873 19.5882C62.5245 19.5882 62.1324 19.5882 61.7108 19.5882C61.7108 20.0196 61.7108 20.4118 61.7108 20.7647C61.7108 21.1176 61.7108 21.5098 61.7108 21.9412ZM61.7108 21.9412C62.1324 21.9412 62.5245 21.9412 62.8873 21.9412C63.25 21.9412 63.6422 21.9412 64.0637 21.9412C64.0637 21.5098 64.0637 21.1176 64.0637 20.7647C64.0637 20.4118 64.0637 20.0196 64.0637 19.5882C63.6422 19.5882 63.25 19.5882 62.8873 19.5882C62.5245 19.5882 62.1324 19.5882 61.7108 19.5882C61.7108 20.0196 61.7108 20.4118 61.7108 20.7647C61.7108 21.1176 61.7108 21.5098 61.7108 21.9412ZM61.7108 21.9412C62.1324 21.9412 62.5245 21.9412 62.8873 21.9412C63.25 21.9412 63.6422 21.9412 64.0637 21.9412C64.0637 21.5098 64.0637 21.1176 64.0637 20.7647C64.0637 20.4118 64.0637 20.0196 64.0637 19.5882C63.6422 19.5882 63.25 19.5882 62.8873 19.5882C62.5245 19.5882 62.1324 19.5882 61.7108 19.5882C61.7108 20.0196 61.7108 20.4118 61.7108 20.7647C61.7108 21.1176 61.7108 21.5098 61.7108 21.9412ZM61.7108 21.9412C62.1324 21.9412 62.5245 21.9412 62.8873 21.9412C63.25 21.9412 63.6422 21.9412 64.0637 21.9412C64.0637 21.5098 64.0637 21.1176 64.0637 20.7647C64.0637 20.4118 64.0637 20.0196 64.0637 19.5882C63.6422 19.5882 63.25 19.5882 62.8873 19.5882C62.5245 19.5882 62.1324 19.5882 61.7108 19.5882C61.7108 20.0196 61.7108 20.4118 61.7108 20.7647C61.7108 21.1176 61.7108 21.5098 61.7108 21.9412ZM61.7108 21.9412C62.1324 21.9412 62.5245 21.9412 62.8873 21.9412C63.25 21.9412 63.6422 21.9412 64.0637 21.9412C64.0637 21.5098 64.0637 21.1176 64.0637 20.7647C64.0637 20.4118 64.0637 20.0196 64.0637 19.5882C63.6422 19.5882 63.25 19.5882 62.8873 19.5882C62.5245 19.5882 62.1324 19.5882 61.7108 19.5882C61.7108 20.0196 61.7108 20.4118 61.7108 20.7647C61.7108 21.1176 61.7108 21.5098 61.7108 21.9412ZM61.7108 21.9412C62.1324 21.9412 62.5245 21.9412 62.8873 21.9412C63.25 21.9412 63.6422 21.9412 64.0637 21.9412C64.0637 21.5098 64.0637 21.1176 64.0637 20.7647C64.0637 20.4118 64.0637 20.0196 64.0637 19.5882C63.6422 19.5882 63.25 19.5882 62.8873 19.5882C62.5245 19.5882 62.1324 19.5882 61.7108 19.5882C61.7108 20.0196 61.7108 20.4118 61.7108 20.7647C61.7108 21.1176 61.7108 21.5098 61.7108 21.9412ZM61.7108 21.9412C62.1324 21.9412 62.5245 21.9412 62.8873 21.9412C63.25 21.9412 63.6422 21.9412 64.0637 21.9412C64.0637 21.5098 64.0637 21.1176 64.0637 20.7647C64.0637 20.4118 64.0637 20.0196 64.0637 19.5882C63.6422 19.5882 63.25 19.5882 62.8873 19.5882C62.5245 19.5882 62.1324 19.5882 61.7108 19.5882C61.7108 20.0196 61.7108 20.4118 61.7108 20.7647C61.7108 21.1176 61.7108 21.5098 61.7108 21.9412ZM61.7108 21.9412C62.1324 21.9412 62.5245 21.9412 62.8873 21.9412C63.25 21.9412 63.6422 21.9412 64.0637 21.9412C64.0637 21.5098 64.0637 21.1176 64.0637 20.7647C64.0637 20.4118 64.0637 20.0196 64.0637 19.5882C63.6422 19.5882 63.25 19.5882 62.8873 19.5882C62.5245 19.5882 62.1324 19.5882 61.7108 19.5882C61.7108 20.0196 61.7108 20.4118 61.7108 20.7647C61.7108 21.1176 61.7108 21.5098 61.7108 21.9412ZM61.7108 21.9412C62.1324 21.9412 62.5245 21.9412 62.8873 21.9412C63.25 21.9412 63.6422 21.9412 64.0637 21.9412C64.0637 21.5098 64.0637 21.1176 64.0637 20.7647C64.0637 20.4118 64.0637 20.0196 64.0637 19.5882C63.6422 19.5882 63.25 19.5882 62.8873 19.5882C62.5245 19.5882 62.1324 19.5882 61.7108 19.5882C61.7108 20.0196 61.7108 20.4118 61.7108 20.7647C61.7108 21.1176 61.7108 21.5098 61.7108 21.9412ZM64.0637 21.9412C64.4853 21.9412 64.8775 21.9412 65.2402 21.9412C65.6029 21.9412 65.9951 21.9412 66.4167 21.9412C66.4167 21.5098 66.4167 21.1176 66.4167 20.7647C66.4167 20.4118 66.4167 20.0196 66.4167 19.5882C65.9951 19.5882 65.6029 19.5882 65.2402 19.5882C64.8775 19.5882 64.4853 19.5882 64.0637 19.5882C64.0637 20.0196 64.0637 20.4118 64.0637 20.7647C64.0637 21.1176 64.0637 21.5098 64.0637 21.9412ZM64.0637 21.9412C64.4853 21.9412 64.8775 21.9412 65.2402 21.9412C65.6029 21.9412 65.9951 21.9412 66.4167 21.9412C66.4167 21.5098 66.4167 21.1176 66.4167 20.7647C66.4167 20.4118 66.4167 20.0196 66.4167 19.5882C65.9951 19.5882 65.6029 19.5882 65.2402 19.5882C64.8775 19.5882 64.4853 19.5882 64.0637 19.5882C64.0637 20.0196 64.0637 20.4118 64.0637 20.7647C64.0637 21.1176 64.0637 21.5098 64.0637 21.9412ZM64.0637 21.9412C64.4853 21.9412 64.8775 21.9412 65.2402 21.9412C65.6029 21.9412 65.9951 21.9412 66.4167 21.9412C66.4167 21.5098 66.4167 21.1176 66.4167 20.7647C66.4167 20.4118 66.4167 20.0196 66.4167 19.5882C65.9951 19.5882 65.6029 19.5882 65.2402 19.5882C64.8775 19.5882 64.4853 19.5882 64.0637 19.5882C64.0637 20.0196 64.0637 20.4118 64.0637 20.7647C64.0637 21.1176 64.0637 21.5098 64.0637 21.9412ZM64.0637 21.9412C64.4853 21.9412 64.8775 21.9412 65.2402 21.9412C65.6029 21.9412 65.9951 21.9412 66.4167 21.9412C66.4167 21.5098 66.4167 21.1176 66.4167 20.7647C66.4167 20.4118 66.4167 20.0196 66.4167 19.5882C65.9951 19.5882 65.6029 19.5882 65.2402 19.5882C64.8775 19.5882 64.4853 19.5882 64.0637 19.5882C64.0637 20.0196 64.0637 20.4118 64.0637 20.7647C64.0637 21.1176 64.0637 21.5098 64.0637 21.9412ZM64.0637 21.9412C64.4853 21.9412 64.8775 21.9412 65.2402 21.9412C65.6029 21.9412 65.9951 21.9412 66.4167 21.9412C66.4167 21.5098 66.4167 21.1176 66.4167 20.7647C66.4167 20.4118 66.4167 20.0196 66.4167 19.5882C65.9951 19.5882 65.6029 19.5882 65.2402 19.5882C64.8775 19.5882 64.4853 19.5882 64.0637 19.5882C64.0637 20.0196 64.0637 20.4118 64.0637 20.7647C64.0637 21.1176 64.0637 21.5098 64.0637 21.9412ZM64.0637 21.9412C64.4853 21.9412 64.8775 21.9412 65.2402 21.9412C65.6029 21.9412 65.9951 21.9412 66.4167 21.9412C66.4167 21.5098 66.4167 21.1176 66.4167 20.7647C66.4167 20.4118 66.4167 20.0196 66.4167 19.5882C65.9951 19.5882 65.6029 19.5882 65.2402 19.5882C64.8775 19.5882 64.4853 19.5882 64.0637 19.5882C64.0637 20.0196 64.0637 20.4118 64.0637 20.7647C64.0637 21.1176 64.0637 21.5098 64.0637 21.9412ZM64.0637 21.9412C64.4853 21.9412 64.8775 21.9412 65.2402 21.9412C65.6029 21.9412 65.9951 21.9412 66.4167 21.9412C66.4167 21.5098 66.4167 21.1176 66.4167 20.7647C66.4167 20.4118 66.4167 20.0196 66.4167 19.5882C65.9951 19.5882 65.6029 19.5882 65.2402 19.5882C64.8775 19.5882 64.4853 19.5882 64.0637 19.5882C64.0637 20.0196 64.0637 20.4118 64.0637 20.7647C64.0637 21.1176 64.0637 21.5098 64.0637 21.9412ZM64.0637 21.9412C64.4853 21.9412 64.8775 21.9412 65.2402 21.9412C65.6029 21.9412 65.9951 21.9412 66.4167 21.9412C66.4167 21.5098 66.4167 21.1176 66.4167 20.7647C66.4167 20.4118 66.4167 20.0196 66.4167 19.5882C65.9951 19.5882 65.6029 19.5882 65.2402 19.5882C64.8775 19.5882 64.4853 19.5882 64.0637 19.5882C64.0637 20.0196 64.0637 20.4118 64.0637 20.7647C64.0637 21.1176 64.0637 21.5098 64.0637 21.9412ZM64.0637 21.9412C64.4853 21.9412 64.8775 21.9412 65.2402 21.9412C65.6029 21.9412 65.9951 21.9412 66.4167 21.9412C66.4167 21.5098 66.4167 21.1176 66.4167 20.7647C66.4167 20.4118 66.4167 20.0196 66.4167 19.5882C65.9951 19.5882 65.6029 19.5882 65.2402 19.5882C64.8775 19.5882 64.4853 19.5882 64.0637 19.5882C64.0637 20.0196 64.0637 20.4118 64.0637 20.7647C64.0637 21.1176 64.0637 21.5098 64.0637 21.9412ZM66.4167 21.9412C66.8382 21.9412 67.2304 21.9412 67.5931 21.9412C67.9559 21.9412 68.348 21.9412 68.7696 21.9412C68.7696 21.5098 68.7696 21.1176 68.7696 20.7647C68.7696 20.4118 68.7696 20.0196 68.7696 19.5882C68.348 19.5882 67.9559 19.5882 67.5931 19.5882C67.2304 19.5882 66.8382 19.5882 66.4167 19.5882C66.4167 20.0196 66.4167 20.4118 66.4167 20.7647C66.4167 21.1176 66.4167 21.5098 66.4167 21.9412ZM66.4167 21.9412C66.8382 21.9412 67.2304 21.9412 67.5931 21.9412C67.9559 21.9412 68.348 21.9412 68.7696 21.9412C68.7696 21.5098 68.7696 21.1176 68.7696 20.7647C68.7696 20.4118 68.7696 20.0196 68.7696 19.5882C68.348 19.5882 67.9559 19.5882 67.5931 19.5882C67.2304 19.5882 66.8382 19.5882 66.4167 19.5882C66.4167 20.0196 66.4167 20.4118 66.4167 20.7647C66.4167 21.1176 66.4167 21.5098 66.4167 21.9412ZM66.4167 21.9412C66.8382 21.9412 67.2304 21.9412 67.5931 21.9412C67.9559 21.9412 68.348 21.9412 68.7696 21.9412C68.7696 21.5098 68.7696 21.1176 68.7696 20.7647C68.7696 20.4118 68.7696 20.0196 68.7696 19.5882C68.348 19.5882 67.9559 19.5882 67.5931 19.5882C67.2304 19.5882 66.8382 19.5882 66.4167 19.5882C66.4167 20.0196 66.4167 20.4118 66.4167 20.7647C66.4167 21.1176 66.4167 21.5098 66.4167 21.9412ZM66.4167 21.9412C66.8382 21.9412 67.2304 21.9412 67.5931 21.9412C67.9559 21.9412 68.348 21.9412 68.7696 21.9412C68.7696 21.5098 68.7696 21.1176 68.7696 20.7647C68.7696 20.4118 68.7696 20.0196 68.7696 19.5882C68.348 19.5882 67.9559 19.5882 67.5931 19.5882C67.2304 19.5882 66.8382 19.5882 66.4167 19.5882C66.4167 20.0196 66.4167 20.4118 66.4167 20.7647C66.4167 21.1176 66.4167 21.5098 66.4167 21.9412ZM66.4167 21.9412C66.8382 21.9412 67.2304 21.9412 67.5931 21.9412C67.9559 21.9412 68.348 21.9412 68.7696 21.9412C68.7696 21.5098 68.7696 21.1176 68.7696 20.7647C68.7696 20.4118 68.7696 20.0196 68.7696 19.5882C68.348 19.5882 67.9559 19.5882 67.5931 19.5882C67.2304 19.5882 66.8382 19.5882 66.4167 19.5882C66.4167 20.0196 66.4167 20.4118 66.4167 20.7647C66.4167 21.1176 66.4167 21.5098 66.4167 21.9412ZM66.4167 21.9412C66.8382 21.9412 67.2304 21.9412 67.5931 21.9412C67.9559 21.9412 68.348 21.9412 68.7696 21.9412C68.7696 21.5098 68.7696 21.1176 68.7696 20.7647C68.7696 20.4118 68.7696 20.0196 68.7696 19.5882C68.348 19.5882 67.9559 19.5882 67.5931 19.5882C67.2304 19.5882 66.8382 19.5882 66.4167 19.5882C66.4167 20.0196 66.4167 20.4118 66.4167 20.7647C66.4167 21.1176 66.4167 21.5098 66.4167 21.9412ZM66.4167 21.9412C66.8382 21.9412 67.2304 21.9412 67.5931 21.9412C67.9559 21.9412 68.348 21.9412 68.7696 21.9412C68.7696 21.5098 68.7696 21.1176 68.7696 20.7647C68.7696 20.4118 68.7696 20.0196 68.7696 19.5882C68.348 19.5882 67.9559 19.5882 67.5931 19.5882C67.2304 19.5882 66.8382 19.5882 66.4167 19.5882C66.4167 20.0196 66.4167 20.4118 66.4167 20.7647C66.4167 21.1176 66.4167 21.5098 66.4167 21.9412ZM66.4167 21.9412C66.8382 21.9412 67.2304 21.9412 67.5931 21.9412C67.9559 21.9412 68.348 21.9412 68.7696 21.9412C68.7696 21.5098 68.7696 21.1176 68.7696 20.7647C68.7696 20.4118 68.7696 20.0196 68.7696 19.5882C68.348 19.5882 67.9559 19.5882 67.5931 19.5882C67.2304 19.5882 66.8382 19.5882 66.4167 19.5882C66.4167 20.0196 66.4167 20.4118 66.4167 20.7647C66.4167 21.1176 66.4167 21.5098 66.4167 21.9412ZM66.4167 21.9412C66.8382 21.9412 67.2304 21.9412 67.5931 21.9412C67.9559 21.9412 68.348 21.9412 68.7696 21.9412C68.7696 21.5098 68.7696 21.1176 68.7696 20.7647C68.7696 20.4118 68.7696 20.0196 68.7696 19.5882C68.348 19.5882 67.9559 19.5882 67.5931 19.5882C67.2304 19.5882 66.8382 19.5882 66.4167 19.5882C66.4167 20.0196 66.4167 20.4118 66.4167 20.7647C66.4167 21.1176 66.4167 21.5098 66.4167 21.9412ZM68.7696 21.9412C69.1912 21.9412 69.5833 21.9412 69.9461 21.9412C70.3088 21.9412 70.701 21.9412 71.1225 21.9412C71.1225 21.5098 71.1225 21.1176 71.1225 20.7647C71.1225 20.4118 71.1225 20.0196 71.1225 19.5882C70.701 19.5882 70.3088 19.5882 69.9461 19.5882C69.5833 19.5882 69.1912 19.5882 68.7696 19.5882C68.7696 20.0196 68.7696 20.4118 68.7696 20.7647C68.7696 21.1176 68.7696 21.5098 68.7696 21.9412ZM68.7696 21.9412C69.1912 21.9412 69.5833 21.9412 69.9461 21.9412C70.3088 21.9412 70.701 21.9412 71.1225 21.9412C71.1225 21.5098 71.1225 21.1176 71.1225 20.7647C71.1225 20.4118 71.1225 20.0196 71.1225 19.5882C70.701 19.5882 70.3088 19.5882 69.9461 19.5882C69.5833 19.5882 69.1912 19.5882 68.7696 19.5882C68.7696 20.0196 68.7696 20.4118 68.7696 20.7647C68.7696 21.1176 68.7696 21.5098 68.7696 21.9412ZM68.7696 21.9412C69.1912 21.9412 69.5833 21.9412 69.9461 21.9412C70.3088 21.9412 70.701 21.9412 71.1225 21.9412C71.1225 21.5098 71.1225 21.1176 71.1225 20.7647C71.1225 20.4118 71.1225 20.0196 71.1225 19.5882C70.701 19.5882 70.3088 19.5882 69.9461 19.5882C69.5833 19.5882 69.1912 19.5882 68.7696 19.5882C68.7696 20.0196 68.7696 20.4118 68.7696 20.7647C68.7696 21.1176 68.7696 21.5098 68.7696 21.9412ZM68.7696 21.9412C69.1912 21.9412 69.5833 21.9412 69.9461 21.9412C70.3088 21.9412 70.701 21.9412 71.1225 21.9412C71.1225 21.5098 71.1225 21.1176 71.1225 20.7647C71.1225 20.4118 71.1225 20.0196 71.1225 19.5882C70.701 19.5882 70.3088 19.5882 69.9461 19.5882C69.5833 19.5882 69.1912 19.5882 68.7696 19.5882C68.7696 20.0196 68.7696 20.4118 68.7696 20.7647C68.7696 21.1176 68.7696 21.5098 68.7696 21.9412ZM68.7696 21.9412C69.1912 21.9412 69.5833 21.9412 69.9461 21.9412C70.3088 21.9412 70.701 21.9412 71.1225 21.9412C71.1225 21.5098 71.1225 21.1176 71.1225 20.7647C71.1225 20.4118 71.1225 20.0196 71.1225 19.5882C70.701 19.5882 70.3088 19.5882 69.9461 19.5882C69.5833 19.5882 69.1912 19.5882 68.7696 19.5882C68.7696 20.0196 68.7696 20.4118 68.7696 20.7647C68.7696 21.1176 68.7696 21.5098 68.7696 21.9412ZM68.7696 21.9412C69.1912 21.9412 69.5833 21.9412 69.9461 21.9412C70.3088 21.9412 70.701 21.9412 71.1225 21.9412C71.1225 21.5098 71.1225 21.1176 71.1225 20.7647C71.1225 20.4118 71.1225 20.0196 71.1225 19.5882C70.701 19.5882 70.3088 19.5882 69.9461 19.5882C69.5833 19.5882 69.1912 19.5882 68.7696 19.5882C68.7696 20.0196 68.7696 20.4118 68.7696 20.7647C68.7696 21.1176 68.7696 21.5098 68.7696 21.9412ZM68.7696 21.9412C69.1912 21.9412 69.5833 21.9412 69.9461 21.9412C70.3088 21.9412 70.701 21.9412 71.1225 21.9412C71.1225 21.5098 71.1225 21.1176 71.1225 20.7647C71.1225 20.4118 71.1225 20.0196 71.1225 19.5882C70.701 19.5882 70.3088 19.5882 69.9461 19.5882C69.5833 19.5882 69.1912 19.5882 68.7696 19.5882C68.7696 20.0196 68.7696 20.4118 68.7696 20.7647C68.7696 21.1176 68.7696 21.5098 68.7696 21.9412ZM68.7696 21.9412C69.1912 21.9412 69.5833 21.9412 69.9461 21.9412C70.3088 21.9412 70.701 21.9412 71.1225 21.9412C71.1225 21.5098 71.1225 21.1176 71.1225 20.7647C71.1225 20.4118 71.1225 20.0196 71.1225 19.5882C70.701 19.5882 70.3088 19.5882 69.9461 19.5882C69.5833 19.5882 69.1912 19.5882 68.7696 19.5882C68.7696 20.0196 68.7696 20.4118 68.7696 20.7647C68.7696 21.1176 68.7696 21.5098 68.7696 21.9412ZM68.7696 21.9412C69.1912 21.9412 69.5833 21.9412 69.9461 21.9412C70.3088 21.9412 70.701 21.9412 71.1225 21.9412C71.1225 21.5098 71.1225 21.1176 71.1225 20.7647C71.1225 20.4118 71.1225 20.0196 71.1225 19.5882C70.701 19.5882 70.3088 19.5882 69.9461 19.5882C69.5833 19.5882 69.1912 19.5882 68.7696 19.5882C68.7696 20.0196 68.7696 20.4118 68.7696 20.7647C68.7696 21.1176 68.7696 21.5098 68.7696 21.9412ZM59.3578 19.5882C59.7794 19.5882 60.1716 19.5882 60.5343 19.5882C60.8971 19.5882 61.2892 19.5882 61.7108 19.5882C61.7108 19.1569 61.7108 18.7647 61.7108 18.4118C61.7108 18.0588 61.7108 17.6667 61.7108 17.2353C61.2892 17.2353 60.8971 17.2353 60.5343 17.2353C60.1716 17.2353 59.7794 17.2353 59.3578 17.2353C59.3578 17.6667 59.3578 18.0588 59.3578 18.4118C59.3578 18.7647 59.3578 19.1569 59.3578 19.5882ZM59.3578 19.5882C59.7794 19.5882 60.1716 19.5882 60.5343 19.5882C60.8971 19.5882 61.2892 19.5882 61.7108 19.5882C61.7108 19.1569 61.7108 18.7647 61.7108 18.4118C61.7108 18.0588 61.7108 17.6667 61.7108 17.2353C61.2892 17.2353 60.8971 17.2353 60.5343 17.2353C60.1716 17.2353 59.7794 17.2353 59.3578 17.2353C59.3578 17.6667 59.3578 18.0588 59.3578 18.4118C59.3578 18.7647 59.3578 19.1569 59.3578 19.5882ZM59.3578 19.5882C59.7794 19.5882 60.1716 19.5882 60.5343 19.5882C60.8971 19.5882 61.2892 19.5882 61.7108 19.5882C61.7108 19.1569 61.7108 18.7647 61.7108 18.4118C61.7108 18.0588 61.7108 17.6667 61.7108 17.2353C61.2892 17.2353 60.8971 17.2353 60.5343 17.2353C60.1716 17.2353 59.7794 17.2353 59.3578 17.2353C59.3578 17.6667 59.3578 18.0588 59.3578 18.4118C59.3578 18.7647 59.3578 19.1569 59.3578 19.5882ZM59.3578 19.5882C59.7794 19.5882 60.1716 19.5882 60.5343 19.5882C60.8971 19.5882 61.2892 19.5882 61.7108 19.5882C61.7108 19.1569 61.7108 18.7647 61.7108 18.4118C61.7108 18.0588 61.7108 17.6667 61.7108 17.2353C61.2892 17.2353 60.8971 17.2353 60.5343 17.2353C60.1716 17.2353 59.7794 17.2353 59.3578 17.2353C59.3578 17.6667 59.3578 18.0588 59.3578 18.4118C59.3578 18.7647 59.3578 19.1569 59.3578 19.5882ZM59.3578 19.5882C59.7794 19.5882 60.1716 19.5882 60.5343 19.5882C60.8971 19.5882 61.2892 19.5882 61.7108 19.5882C61.7108 19.1569 61.7108 18.7647 61.7108 18.4118C61.7108 18.0588 61.7108 17.6667 61.7108 17.2353C61.2892 17.2353 60.8971 17.2353 60.5343 17.2353C60.1716 17.2353 59.7794 17.2353 59.3578 17.2353C59.3578 17.6667 59.3578 18.0588 59.3578 18.4118C59.3578 18.7647 59.3578 19.1569 59.3578 19.5882ZM59.3578 19.5882C59.7794 19.5882 60.1716 19.5882 60.5343 19.5882C60.8971 19.5882 61.2892 19.5882 61.7108 19.5882C61.7108 19.1569 61.7108 18.7647 61.7108 18.4118C61.7108 18.0588 61.7108 17.6667 61.7108 17.2353C61.2892 17.2353 60.8971 17.2353 60.5343 17.2353C60.1716 17.2353 59.7794 17.2353 59.3578 17.2353C59.3578 17.6667 59.3578 18.0588 59.3578 18.4118C59.3578 18.7647 59.3578 19.1569 59.3578 19.5882ZM59.3578 19.5882C59.7794 19.5882 60.1716 19.5882 60.5343 19.5882C60.8971 19.5882 61.2892 19.5882 61.7108 19.5882C61.7108 19.1569 61.7108 18.7647 61.7108 18.4118C61.7108 18.0588 61.7108 17.6667 61.7108 17.2353C61.2892 17.2353 60.8971 17.2353 60.5343 17.2353C60.1716 17.2353 59.7794 17.2353 59.3578 17.2353C59.3578 17.6667 59.3578 18.0588 59.3578 18.4118C59.3578 18.7647 59.3578 19.1569 59.3578 19.5882ZM59.3578 19.5882C59.7794 19.5882 60.1716 19.5882 60.5343 19.5882C60.8971 19.5882 61.2892 19.5882 61.7108 19.5882C61.7108 19.1569 61.7108 18.7647 61.7108 18.4118C61.7108 18.0588 61.7108 17.6667 61.7108 17.2353C61.2892 17.2353 60.8971 17.2353 60.5343 17.2353C60.1716 17.2353 59.7794 17.2353 59.3578 17.2353C59.3578 17.6667 59.3578 18.0588 59.3578 18.4118C59.3578 18.7647 59.3578 19.1569 59.3578 19.5882ZM59.3578 19.5882C59.7794 19.5882 60.1716 19.5882 60.5343 19.5882C60.8971 19.5882 61.2892 19.5882 61.7108 19.5882C61.7108 19.1569 61.7108 18.7647 61.7108 18.4118C61.7108 18.0588 61.7108 17.6667 61.7108 17.2353C61.2892 17.2353 60.8971 17.2353 60.5343 17.2353C60.1716 17.2353 59.7794 17.2353 59.3578 17.2353C59.3578 17.6667 59.3578 18.0588 59.3578 18.4118C59.3578 18.7647 59.3578 19.1569 59.3578 19.5882ZM68.7696 19.5882C69.1912 19.5882 69.5833 19.5882 69.9461 19.5882C70.3088 19.5882 70.701 19.5882 71.1225 19.5882C71.1225 19.1569 71.1225 18.7647 71.1225 18.4118C71.1225 18.0588 71.1225 17.6667 71.1225 17.2353C70.701 17.2353 70.3088 17.2353 69.9461 17.2353C69.5833 17.2353 69.1912 17.2353 68.7696 17.2353C68.7696 17.6667 68.7696 18.0588 68.7696 18.4118C68.7696 18.7647 68.7696 19.1569 68.7696 19.5882ZM68.7696 19.5882C69.1912 19.5882 69.5833 19.5882 69.9461 19.5882C70.3088 19.5882 70.701 19.5882 71.1225 19.5882C71.1225 19.1569 71.1225 18.7647 71.1225 18.4118C71.1225 18.0588 71.1225 17.6667 71.1225 17.2353C70.701 17.2353 70.3088 17.2353 69.9461 17.2353C69.5833 17.2353 69.1912 17.2353 68.7696 17.2353C68.7696 17.6667 68.7696 18.0588 68.7696 18.4118C68.7696 18.7647 68.7696 19.1569 68.7696 19.5882ZM68.7696 19.5882C69.1912 19.5882 69.5833 19.5882 69.9461 19.5882C70.3088 19.5882 70.701 19.5882 71.1225 19.5882C71.1225 19.1569 71.1225 18.7647 71.1225 18.4118C71.1225 18.0588 71.1225 17.6667 71.1225 17.2353C70.701 17.2353 70.3088 17.2353 69.9461 17.2353C69.5833 17.2353 69.1912 17.2353 68.7696 17.2353C68.7696 17.6667 68.7696 18.0588 68.7696 18.4118C68.7696 18.7647 68.7696 19.1569 68.7696 19.5882ZM68.7696 19.5882C69.1912 19.5882 69.5833 19.5882 69.9461 19.5882C70.3088 19.5882 70.701 19.5882 71.1225 19.5882C71.1225 19.1569 71.1225 18.7647 71.1225 18.4118C71.1225 18.0588 71.1225 17.6667 71.1225 17.2353C70.701 17.2353 70.3088 17.2353 69.9461 17.2353C69.5833 17.2353 69.1912 17.2353 68.7696 17.2353C68.7696 17.6667 68.7696 18.0588 68.7696 18.4118C68.7696 18.7647 68.7696 19.1569 68.7696 19.5882ZM68.7696 19.5882C69.1912 19.5882 69.5833 19.5882 69.9461 19.5882C70.3088 19.5882 70.701 19.5882 71.1225 19.5882C71.1225 19.1569 71.1225 18.7647 71.1225 18.4118C71.1225 18.0588 71.1225 17.6667 71.1225 17.2353C70.701 17.2353 70.3088 17.2353 69.9461 17.2353C69.5833 17.2353 69.1912 17.2353 68.7696 17.2353C68.7696 17.6667 68.7696 18.0588 68.7696 18.4118C68.7696 18.7647 68.7696 19.1569 68.7696 19.5882ZM68.7696 19.5882C69.1912 19.5882 69.5833 19.5882 69.9461 19.5882C70.3088 19.5882 70.701 19.5882 71.1225 19.5882C71.1225 19.1569 71.1225 18.7647 71.1225 18.4118C71.1225 18.0588 71.1225 17.6667 71.1225 17.2353C70.701 17.2353 70.3088 17.2353 69.9461 17.2353C69.5833 17.2353 69.1912 17.2353 68.7696 17.2353C68.7696 17.6667 68.7696 18.0588 68.7696 18.4118C68.7696 18.7647 68.7696 19.1569 68.7696 19.5882ZM68.7696 19.5882C69.1912 19.5882 69.5833 19.5882 69.9461 19.5882C70.3088 19.5882 70.701 19.5882 71.1225 19.5882C71.1225 19.1569 71.1225 18.7647 71.1225 18.4118C71.1225 18.0588 71.1225 17.6667 71.1225 17.2353C70.701 17.2353 70.3088 17.2353 69.9461 17.2353C69.5833 17.2353 69.1912 17.2353 68.7696 17.2353C68.7696 17.6667 68.7696 18.0588 68.7696 18.4118C68.7696 18.7647 68.7696 19.1569 68.7696 19.5882ZM68.7696 19.5882C69.1912 19.5882 69.5833 19.5882 69.9461 19.5882C70.3088 19.5882 70.701 19.5882 71.1225 19.5882C71.1225 19.1569 71.1225 18.7647 71.1225 18.4118C71.1225 18.0588 71.1225 17.6667 71.1225 17.2353C70.701 17.2353 70.3088 17.2353 69.9461 17.2353C69.5833 17.2353 69.1912 17.2353 68.7696 17.2353C68.7696 17.6667 68.7696 18.0588 68.7696 18.4118C68.7696 18.7647 68.7696 19.1569 68.7696 19.5882ZM68.7696 19.5882C69.1912 19.5882 69.5833 19.5882 69.9461 19.5882C70.3088 19.5882 70.701 19.5882 71.1225 19.5882C71.1225 19.1569 71.1225 18.7647 71.1225 18.4118C71.1225 18.0588 71.1225 17.6667 71.1225 17.2353C70.701 17.2353 70.3088 17.2353 69.9461 17.2353C69.5833 17.2353 69.1912 17.2353 68.7696 17.2353C68.7696 17.6667 68.7696 18.0588 68.7696 18.4118C68.7696 18.7647 68.7696 19.1569 68.7696 19.5882ZM59.3578 17.2353C59.7794 17.2353 60.1716 17.2353 60.5343 17.2353C60.8971 17.2353 61.2892 17.2353 61.7108 17.2353C61.7108 16.8039 61.7108 16.4118 61.7108 16.0588C61.7108 15.7059 61.7108 15.3137 61.7108 14.8824C61.2892 14.8824 60.8971 14.8824 60.5343 14.8824C60.1716 14.8824 59.7794 14.8824 59.3578 14.8824C59.3578 15.3137 59.3578 15.7059 59.3578 16.0588C59.3578 16.4118 59.3578 16.8039 59.3578 17.2353ZM59.3578 17.2353C59.7794 17.2353 60.1716 17.2353 60.5343 17.2353C60.8971 17.2353 61.2892 17.2353 61.7108 17.2353C61.7108 16.8039 61.7108 16.4118 61.7108 16.0588C61.7108 15.7059 61.7108 15.3137 61.7108 14.8824C61.2892 14.8824 60.8971 14.8824 60.5343 14.8824C60.1716 14.8824 59.7794 14.8824 59.3578 14.8824C59.3578 15.3137 59.3578 15.7059 59.3578 16.0588C59.3578 16.4118 59.3578 16.8039 59.3578 17.2353ZM59.3578 17.2353C59.7794 17.2353 60.1716 17.2353 60.5343 17.2353C60.8971 17.2353 61.2892 17.2353 61.7108 17.2353C61.7108 16.8039 61.7108 16.4118 61.7108 16.0588C61.7108 15.7059 61.7108 15.3137 61.7108 14.8824C61.2892 14.8824 60.8971 14.8824 60.5343 14.8824C60.1716 14.8824 59.7794 14.8824 59.3578 14.8824C59.3578 15.3137 59.3578 15.7059 59.3578 16.0588C59.3578 16.4118 59.3578 16.8039 59.3578 17.2353ZM59.3578 17.2353C59.7794 17.2353 60.1716 17.2353 60.5343 17.2353C60.8971 17.2353 61.2892 17.2353 61.7108 17.2353C61.7108 16.8039 61.7108 16.4118 61.7108 16.0588C61.7108 15.7059 61.7108 15.3137 61.7108 14.8824C61.2892 14.8824 60.8971 14.8824 60.5343 14.8824C60.1716 14.8824 59.7794 14.8824 59.3578 14.8824C59.3578 15.3137 59.3578 15.7059 59.3578 16.0588C59.3578 16.4118 59.3578 16.8039 59.3578 17.2353ZM59.3578 17.2353C59.7794 17.2353 60.1716 17.2353 60.5343 17.2353C60.8971 17.2353 61.2892 17.2353 61.7108 17.2353C61.7108 16.8039 61.7108 16.4118 61.7108 16.0588C61.7108 15.7059 61.7108 15.3137 61.7108 14.8824C61.2892 14.8824 60.8971 14.8824 60.5343 14.8824C60.1716 14.8824 59.7794 14.8824 59.3578 14.8824C59.3578 15.3137 59.3578 15.7059 59.3578 16.0588C59.3578 16.4118 59.3578 16.8039 59.3578 17.2353ZM59.3578 17.2353C59.7794 17.2353 60.1716 17.2353 60.5343 17.2353C60.8971 17.2353 61.2892 17.2353 61.7108 17.2353C61.7108 16.8039 61.7108 16.4118 61.7108 16.0588C61.7108 15.7059 61.7108 15.3137 61.7108 14.8824C61.2892 14.8824 60.8971 14.8824 60.5343 14.8824C60.1716 14.8824 59.7794 14.8824 59.3578 14.8824C59.3578 15.3137 59.3578 15.7059 59.3578 16.0588C59.3578 16.4118 59.3578 16.8039 59.3578 17.2353ZM59.3578 17.2353C59.7794 17.2353 60.1716 17.2353 60.5343 17.2353C60.8971 17.2353 61.2892 17.2353 61.7108 17.2353C61.7108 16.8039 61.7108 16.4118 61.7108 16.0588C61.7108 15.7059 61.7108 15.3137 61.7108 14.8824C61.2892 14.8824 60.8971 14.8824 60.5343 14.8824C60.1716 14.8824 59.7794 14.8824 59.3578 14.8824C59.3578 15.3137 59.3578 15.7059 59.3578 16.0588C59.3578 16.4118 59.3578 16.8039 59.3578 17.2353ZM59.3578 17.2353C59.7794 17.2353 60.1716 17.2353 60.5343 17.2353C60.8971 17.2353 61.2892 17.2353 61.7108 17.2353C61.7108 16.8039 61.7108 16.4118 61.7108 16.0588C61.7108 15.7059 61.7108 15.3137 61.7108 14.8824C61.2892 14.8824 60.8971 14.8824 60.5343 14.8824C60.1716 14.8824 59.7794 14.8824 59.3578 14.8824C59.3578 15.3137 59.3578 15.7059 59.3578 16.0588C59.3578 16.4118 59.3578 16.8039 59.3578 17.2353ZM59.3578 17.2353C59.7794 17.2353 60.1716 17.2353 60.5343 17.2353C60.8971 17.2353 61.2892 17.2353 61.7108 17.2353C61.7108 16.8039 61.7108 16.4118 61.7108 16.0588C61.7108 15.7059 61.7108 15.3137 61.7108 14.8824C61.2892 14.8824 60.8971 14.8824 60.5343 14.8824C60.1716 14.8824 59.7794 14.8824 59.3578 14.8824C59.3578 15.3137 59.3578 15.7059 59.3578 16.0588C59.3578 16.4118 59.3578 16.8039 59.3578 17.2353ZM68.7696 17.2353C69.1912 17.2353 69.5833 17.2353 69.9461 17.2353C70.3088 17.2353 70.701 17.2353 71.1225 17.2353C71.1225 16.8039 71.1225 16.4118 71.1225 16.0588C71.1225 15.7059 71.1225 15.3137 71.1225 14.8824C70.701 14.8824 70.3088 14.8824 69.9461 14.8824C69.5833 14.8824 69.1912 14.8824 68.7696 14.8824C68.7696 15.3137 68.7696 15.7059 68.7696 16.0588C68.7696 16.4118 68.7696 16.8039 68.7696 17.2353ZM68.7696 17.2353C69.1912 17.2353 69.5833 17.2353 69.9461 17.2353C70.3088 17.2353 70.701 17.2353 71.1225 17.2353C71.1225 16.8039 71.1225 16.4118 71.1225 16.0588C71.1225 15.7059 71.1225 15.3137 71.1225 14.8824C70.701 14.8824 70.3088 14.8824 69.9461 14.8824C69.5833 14.8824 69.1912 14.8824 68.7696 14.8824C68.7696 15.3137 68.7696 15.7059 68.7696 16.0588C68.7696 16.4118 68.7696 16.8039 68.7696 17.2353ZM68.7696 17.2353C69.1912 17.2353 69.5833 17.2353 69.9461 17.2353C70.3088 17.2353 70.701 17.2353 71.1225 17.2353C71.1225 16.8039 71.1225 16.4118 71.1225 16.0588C71.1225 15.7059 71.1225 15.3137 71.1225 14.8824C70.701 14.8824 70.3088 14.8824 69.9461 14.8824C69.5833 14.8824 69.1912 14.8824 68.7696 14.8824C68.7696 15.3137 68.7696 15.7059 68.7696 16.0588C68.7696 16.4118 68.7696 16.8039 68.7696 17.2353ZM68.7696 17.2353C69.1912 17.2353 69.5833 17.2353 69.9461 17.2353C70.3088 17.2353 70.701 17.2353 71.1225 17.2353C71.1225 16.8039 71.1225 16.4118 71.1225 16.0588C71.1225 15.7059 71.1225 15.3137 71.1225 14.8824C70.701 14.8824 70.3088 14.8824 69.9461 14.8824C69.5833 14.8824 69.1912 14.8824 68.7696 14.8824C68.7696 15.3137 68.7696 15.7059 68.7696 16.0588C68.7696 16.4118 68.7696 16.8039 68.7696 17.2353ZM68.7696 17.2353C69.1912 17.2353 69.5833 17.2353 69.9461 17.2353C70.3088 17.2353 70.701 17.2353 71.1225 17.2353C71.1225 16.8039 71.1225 16.4118 71.1225 16.0588C71.1225 15.7059 71.1225 15.3137 71.1225 14.8824C70.701 14.8824 70.3088 14.8824 69.9461 14.8824C69.5833 14.8824 69.1912 14.8824 68.7696 14.8824C68.7696 15.3137 68.7696 15.7059 68.7696 16.0588C68.7696 16.4118 68.7696 16.8039 68.7696 17.2353ZM68.7696 17.2353C69.1912 17.2353 69.5833 17.2353 69.9461 17.2353C70.3088 17.2353 70.701 17.2353 71.1225 17.2353C71.1225 16.8039 71.1225 16.4118 71.1225 16.0588C71.1225 15.7059 71.1225 15.3137 71.1225 14.8824C70.701 14.8824 70.3088 14.8824 69.9461 14.8824C69.5833 14.8824 69.1912 14.8824 68.7696 14.8824C68.7696 15.3137 68.7696 15.7059 68.7696 16.0588C68.7696 16.4118 68.7696 16.8039 68.7696 17.2353ZM68.7696 17.2353C69.1912 17.2353 69.5833 17.2353 69.9461 17.2353C70.3088 17.2353 70.701 17.2353 71.1225 17.2353C71.1225 16.8039 71.1225 16.4118 71.1225 16.0588C71.1225 15.7059 71.1225 15.3137 71.1225 14.8824C70.701 14.8824 70.3088 14.8824 69.9461 14.8824C69.5833 14.8824 69.1912 14.8824 68.7696 14.8824C68.7696 15.3137 68.7696 15.7059 68.7696 16.0588C68.7696 16.4118 68.7696 16.8039 68.7696 17.2353ZM68.7696 17.2353C69.1912 17.2353 69.5833 17.2353 69.9461 17.2353C70.3088 17.2353 70.701 17.2353 71.1225 17.2353C71.1225 16.8039 71.1225 16.4118 71.1225 16.0588C71.1225 15.7059 71.1225 15.3137 71.1225 14.8824C70.701 14.8824 70.3088 14.8824 69.9461 14.8824C69.5833 14.8824 69.1912 14.8824 68.7696 14.8824C68.7696 15.3137 68.7696 15.7059 68.7696 16.0588C68.7696 16.4118 68.7696 16.8039 68.7696 17.2353ZM68.7696 17.2353C69.1912 17.2353 69.5833 17.2353 69.9461 17.2353C70.3088 17.2353 70.701 17.2353 71.1225 17.2353C71.1225 16.8039 71.1225 16.4118 71.1225 16.0588C71.1225 15.7059 71.1225 15.3137 71.1225 14.8824C70.701 14.8824 70.3088 14.8824 69.9461 14.8824C69.5833 14.8824 69.1912 14.8824 68.7696 14.8824C68.7696 15.3137 68.7696 15.7059 68.7696 16.0588C68.7696 16.4118 68.7696 16.8039 68.7696 17.2353ZM59.3578 14.8824C59.7794 14.8824 60.1716 14.8824 60.5343 14.8824C60.8971 14.8824 61.2892 14.8824 61.7108 14.8824C61.7108 14.451 61.7108 14.0588 61.7108 13.7059C61.7108 13.3529 61.7108 12.9608 61.7108 12.5294C61.2892 12.5294 60.8971 12.5294 60.5343 12.5294C60.1716 12.5294 59.7794 12.5294 59.3578 12.5294C59.3578 12.9608 59.3578 13.3529 59.3578 13.7059C59.3578 14.0588 59.3578 14.451 59.3578 14.8824ZM59.3578 14.8824C59.7794 14.8824 60.1716 14.8824 60.5343 14.8824C60.8971 14.8824 61.2892 14.8824 61.7108 14.8824C61.7108 14.451 61.7108 14.0588 61.7108 13.7059C61.7108 13.3529 61.7108 12.9608 61.7108 12.5294C61.2892 12.5294 60.8971 12.5294 60.5343 12.5294C60.1716 12.5294 59.7794 12.5294 59.3578 12.5294C59.3578 12.9608 59.3578 13.3529 59.3578 13.7059C59.3578 14.0588 59.3578 14.451 59.3578 14.8824ZM59.3578 14.8824C59.7794 14.8824 60.1716 14.8824 60.5343 14.8824C60.8971 14.8824 61.2892 14.8824 61.7108 14.8824C61.7108 14.451 61.7108 14.0588 61.7108 13.7059C61.7108 13.3529 61.7108 12.9608 61.7108 12.5294C61.2892 12.5294 60.8971 12.5294 60.5343 12.5294C60.1716 12.5294 59.7794 12.5294 59.3578 12.5294C59.3578 12.9608 59.3578 13.3529 59.3578 13.7059C59.3578 14.0588 59.3578 14.451 59.3578 14.8824ZM59.3578 14.8824C59.7794 14.8824 60.1716 14.8824 60.5343 14.8824C60.8971 14.8824 61.2892 14.8824 61.7108 14.8824C61.7108 14.451 61.7108 14.0588 61.7108 13.7059C61.7108 13.3529 61.7108 12.9608 61.7108 12.5294C61.2892 12.5294 60.8971 12.5294 60.5343 12.5294C60.1716 12.5294 59.7794 12.5294 59.3578 12.5294C59.3578 12.9608 59.3578 13.3529 59.3578 13.7059C59.3578 14.0588 59.3578 14.451 59.3578 14.8824ZM59.3578 14.8824C59.7794 14.8824 60.1716 14.8824 60.5343 14.8824C60.8971 14.8824 61.2892 14.8824 61.7108 14.8824C61.7108 14.451 61.7108 14.0588 61.7108 13.7059C61.7108 13.3529 61.7108 12.9608 61.7108 12.5294C61.2892 12.5294 60.8971 12.5294 60.5343 12.5294C60.1716 12.5294 59.7794 12.5294 59.3578 12.5294C59.3578 12.9608 59.3578 13.3529 59.3578 13.7059C59.3578 14.0588 59.3578 14.451 59.3578 14.8824ZM59.3578 14.8824C59.7794 14.8824 60.1716 14.8824 60.5343 14.8824C60.8971 14.8824 61.2892 14.8824 61.7108 14.8824C61.7108 14.451 61.7108 14.0588 61.7108 13.7059C61.7108 13.3529 61.7108 12.9608 61.7108 12.5294C61.2892 12.5294 60.8971 12.5294 60.5343 12.5294C60.1716 12.5294 59.7794 12.5294 59.3578 12.5294C59.3578 12.9608 59.3578 13.3529 59.3578 13.7059C59.3578 14.0588 59.3578 14.451 59.3578 14.8824ZM59.3578 14.8824C59.7794 14.8824 60.1716 14.8824 60.5343 14.8824C60.8971 14.8824 61.2892 14.8824 61.7108 14.8824C61.7108 14.451 61.7108 14.0588 61.7108 13.7059C61.7108 13.3529 61.7108 12.9608 61.7108 12.5294C61.2892 12.5294 60.8971 12.5294 60.5343 12.5294C60.1716 12.5294 59.7794 12.5294 59.3578 12.5294C59.3578 12.9608 59.3578 13.3529 59.3578 13.7059C59.3578 14.0588 59.3578 14.451 59.3578 14.8824ZM59.3578 14.8824C59.7794 14.8824 60.1716 14.8824 60.5343 14.8824C60.8971 14.8824 61.2892 14.8824 61.7108 14.8824C61.7108 14.451 61.7108 14.0588 61.7108 13.7059C61.7108 13.3529 61.7108 12.9608 61.7108 12.5294C61.2892 12.5294 60.8971 12.5294 60.5343 12.5294C60.1716 12.5294 59.7794 12.5294 59.3578 12.5294C59.3578 12.9608 59.3578 13.3529 59.3578 13.7059C59.3578 14.0588 59.3578 14.451 59.3578 14.8824ZM59.3578 14.8824C59.7794 14.8824 60.1716 14.8824 60.5343 14.8824C60.8971 14.8824 61.2892 14.8824 61.7108 14.8824C61.7108 14.451 61.7108 14.0588 61.7108 13.7059C61.7108 13.3529 61.7108 12.9608 61.7108 12.5294C61.2892 12.5294 60.8971 12.5294 60.5343 12.5294C60.1716 12.5294 59.7794 12.5294 59.3578 12.5294C59.3578 12.9608 59.3578 13.3529 59.3578 13.7059C59.3578 14.0588 59.3578 14.451 59.3578 14.8824ZM68.7696 14.8824C69.1912 14.8824 69.5833 14.8824 69.9461 14.8824C70.3088 14.8824 70.701 14.8824 71.1225 14.8824C71.1225 14.451 71.1225 14.0588 71.1225 13.7059C71.1225 13.3529 71.1225 12.9608 71.1225 12.5294C70.701 12.5294 70.3088 12.5294 69.9461 12.5294C69.5833 12.5294 69.1912 12.5294 68.7696 12.5294C68.7696 12.9608 68.7696 13.3529 68.7696 13.7059C68.7696 14.0588 68.7696 14.451 68.7696 14.8824ZM68.7696 14.8824C69.1912 14.8824 69.5833 14.8824 69.9461 14.8824C70.3088 14.8824 70.701 14.8824 71.1225 14.8824C71.1225 14.451 71.1225 14.0588 71.1225 13.7059C71.1225 13.3529 71.1225 12.9608 71.1225 12.5294C70.701 12.5294 70.3088 12.5294 69.9461 12.5294C69.5833 12.5294 69.1912 12.5294 68.7696 12.5294C68.7696 12.9608 68.7696 13.3529 68.7696 13.7059C68.7696 14.0588 68.7696 14.451 68.7696 14.8824ZM68.7696 14.8824C69.1912 14.8824 69.5833 14.8824 69.9461 14.8824C70.3088 14.8824 70.701 14.8824 71.1225 14.8824C71.1225 14.451 71.1225 14.0588 71.1225 13.7059C71.1225 13.3529 71.1225 12.9608 71.1225 12.5294C70.701 12.5294 70.3088 12.5294 69.9461 12.5294C69.5833 12.5294 69.1912 12.5294 68.7696 12.5294C68.7696 12.9608 68.7696 13.3529 68.7696 13.7059C68.7696 14.0588 68.7696 14.451 68.7696 14.8824ZM68.7696 14.8824C69.1912 14.8824 69.5833 14.8824 69.9461 14.8824C70.3088 14.8824 70.701 14.8824 71.1225 14.8824C71.1225 14.451 71.1225 14.0588 71.1225 13.7059C71.1225 13.3529 71.1225 12.9608 71.1225 12.5294C70.701 12.5294 70.3088 12.5294 69.9461 12.5294C69.5833 12.5294 69.1912 12.5294 68.7696 12.5294C68.7696 12.9608 68.7696 13.3529 68.7696 13.7059C68.7696 14.0588 68.7696 14.451 68.7696 14.8824ZM68.7696 14.8824C69.1912 14.8824 69.5833 14.8824 69.9461 14.8824C70.3088 14.8824 70.701 14.8824 71.1225 14.8824C71.1225 14.451 71.1225 14.0588 71.1225 13.7059C71.1225 13.3529 71.1225 12.9608 71.1225 12.5294C70.701 12.5294 70.3088 12.5294 69.9461 12.5294C69.5833 12.5294 69.1912 12.5294 68.7696 12.5294C68.7696 12.9608 68.7696 13.3529 68.7696 13.7059C68.7696 14.0588 68.7696 14.451 68.7696 14.8824ZM68.7696 14.8824C69.1912 14.8824 69.5833 14.8824 69.9461 14.8824C70.3088 14.8824 70.701 14.8824 71.1225 14.8824C71.1225 14.451 71.1225 14.0588 71.1225 13.7059C71.1225 13.3529 71.1225 12.9608 71.1225 12.5294C70.701 12.5294 70.3088 12.5294 69.9461 12.5294C69.5833 12.5294 69.1912 12.5294 68.7696 12.5294C68.7696 12.9608 68.7696 13.3529 68.7696 13.7059C68.7696 14.0588 68.7696 14.451 68.7696 14.8824ZM68.7696 14.8824C69.1912 14.8824 69.5833 14.8824 69.9461 14.8824C70.3088 14.8824 70.701 14.8824 71.1225 14.8824C71.1225 14.451 71.1225 14.0588 71.1225 13.7059C71.1225 13.3529 71.1225 12.9608 71.1225 12.5294C70.701 12.5294 70.3088 12.5294 69.9461 12.5294C69.5833 12.5294 69.1912 12.5294 68.7696 12.5294C68.7696 12.9608 68.7696 13.3529 68.7696 13.7059C68.7696 14.0588 68.7696 14.451 68.7696 14.8824ZM68.7696 14.8824C69.1912 14.8824 69.5833 14.8824 69.9461 14.8824C70.3088 14.8824 70.701 14.8824 71.1225 14.8824C71.1225 14.451 71.1225 14.0588 71.1225 13.7059C71.1225 13.3529 71.1225 12.9608 71.1225 12.5294C70.701 12.5294 70.3088 12.5294 69.9461 12.5294C69.5833 12.5294 69.1912 12.5294 68.7696 12.5294C68.7696 12.9608 68.7696 13.3529 68.7696 13.7059C68.7696 14.0588 68.7696 14.451 68.7696 14.8824ZM68.7696 14.8824C69.1912 14.8824 69.5833 14.8824 69.9461 14.8824C70.3088 14.8824 70.701 14.8824 71.1225 14.8824C71.1225 14.451 71.1225 14.0588 71.1225 13.7059C71.1225 13.3529 71.1225 12.9608 71.1225 12.5294C70.701 12.5294 70.3088 12.5294 69.9461 12.5294C69.5833 12.5294 69.1912 12.5294 68.7696 12.5294C68.7696 12.9608 68.7696 13.3529 68.7696 13.7059C68.7696 14.0588 68.7696 14.451 68.7696 14.8824ZM59.3578 12.5294C59.7794 12.5294 60.1716 12.5294 60.5343 12.5294C60.8971 12.5294 61.2892 12.5294 61.7108 12.5294C61.7108 12.098 61.7108 11.7059 61.7108 11.3529C61.7108 11 61.7108 10.6078 61.7108 10.1765C61.2892 10.1765 60.8971 10.1765 60.5343 10.1765C60.1716 10.1765 59.7794 10.1765 59.3578 10.1765C59.3578 10.6078 59.3578 11 59.3578 11.3529C59.3578 11.7059 59.3578 12.098 59.3578 12.5294ZM59.3578 12.5294C59.7794 12.5294 60.1716 12.5294 60.5343 12.5294C60.8971 12.5294 61.2892 12.5294 61.7108 12.5294C61.7108 12.098 61.7108 11.7059 61.7108 11.3529C61.7108 11 61.7108 10.6078 61.7108 10.1765C61.2892 10.1765 60.8971 10.1765 60.5343 10.1765C60.1716 10.1765 59.7794 10.1765 59.3578 10.1765C59.3578 10.6078 59.3578 11 59.3578 11.3529C59.3578 11.7059 59.3578 12.098 59.3578 12.5294ZM59.3578 12.5294C59.7794 12.5294 60.1716 12.5294 60.5343 12.5294C60.8971 12.5294 61.2892 12.5294 61.7108 12.5294C61.7108 12.098 61.7108 11.7059 61.7108 11.3529C61.7108 11 61.7108 10.6078 61.7108 10.1765C61.2892 10.1765 60.8971 10.1765 60.5343 10.1765C60.1716 10.1765 59.7794 10.1765 59.3578 10.1765C59.3578 10.6078 59.3578 11 59.3578 11.3529C59.3578 11.7059 59.3578 12.098 59.3578 12.5294ZM59.3578 12.5294C59.7794 12.5294 60.1716 12.5294 60.5343 12.5294C60.8971 12.5294 61.2892 12.5294 61.7108 12.5294C61.7108 12.098 61.7108 11.7059 61.7108 11.3529C61.7108 11 61.7108 10.6078 61.7108 10.1765C61.2892 10.1765 60.8971 10.1765 60.5343 10.1765C60.1716 10.1765 59.7794 10.1765 59.3578 10.1765C59.3578 10.6078 59.3578 11 59.3578 11.3529C59.3578 11.7059 59.3578 12.098 59.3578 12.5294ZM59.3578 12.5294C59.7794 12.5294 60.1716 12.5294 60.5343 12.5294C60.8971 12.5294 61.2892 12.5294 61.7108 12.5294C61.7108 12.098 61.7108 11.7059 61.7108 11.3529C61.7108 11 61.7108 10.6078 61.7108 10.1765C61.2892 10.1765 60.8971 10.1765 60.5343 10.1765C60.1716 10.1765 59.7794 10.1765 59.3578 10.1765C59.3578 10.6078 59.3578 11 59.3578 11.3529C59.3578 11.7059 59.3578 12.098 59.3578 12.5294ZM59.3578 12.5294C59.7794 12.5294 60.1716 12.5294 60.5343 12.5294C60.8971 12.5294 61.2892 12.5294 61.7108 12.5294C61.7108 12.098 61.7108 11.7059 61.7108 11.3529C61.7108 11 61.7108 10.6078 61.7108 10.1765C61.2892 10.1765 60.8971 10.1765 60.5343 10.1765C60.1716 10.1765 59.7794 10.1765 59.3578 10.1765C59.3578 10.6078 59.3578 11 59.3578 11.3529C59.3578 11.7059 59.3578 12.098 59.3578 12.5294ZM59.3578 12.5294C59.7794 12.5294 60.1716 12.5294 60.5343 12.5294C60.8971 12.5294 61.2892 12.5294 61.7108 12.5294C61.7108 12.098 61.7108 11.7059 61.7108 11.3529C61.7108 11 61.7108 10.6078 61.7108 10.1765C61.2892 10.1765 60.8971 10.1765 60.5343 10.1765C60.1716 10.1765 59.7794 10.1765 59.3578 10.1765C59.3578 10.6078 59.3578 11 59.3578 11.3529C59.3578 11.7059 59.3578 12.098 59.3578 12.5294ZM59.3578 12.5294C59.7794 12.5294 60.1716 12.5294 60.5343 12.5294C60.8971 12.5294 61.2892 12.5294 61.7108 12.5294C61.7108 12.098 61.7108 11.7059 61.7108 11.3529C61.7108 11 61.7108 10.6078 61.7108 10.1765C61.2892 10.1765 60.8971 10.1765 60.5343 10.1765C60.1716 10.1765 59.7794 10.1765 59.3578 10.1765C59.3578 10.6078 59.3578 11 59.3578 11.3529C59.3578 11.7059 59.3578 12.098 59.3578 12.5294ZM59.3578 12.5294C59.7794 12.5294 60.1716 12.5294 60.5343 12.5294C60.8971 12.5294 61.2892 12.5294 61.7108 12.5294C61.7108 12.098 61.7108 11.7059 61.7108 11.3529C61.7108 11 61.7108 10.6078 61.7108 10.1765C61.2892 10.1765 60.8971 10.1765 60.5343 10.1765C60.1716 10.1765 59.7794 10.1765 59.3578 10.1765C59.3578 10.6078 59.3578 11 59.3578 11.3529C59.3578 11.7059 59.3578 12.098 59.3578 12.5294ZM68.7696 12.5294C69.1912 12.5294 69.5833 12.5294 69.9461 12.5294C70.3088 12.5294 70.701 12.5294 71.1225 12.5294C71.1225 12.098 71.1225 11.7059 71.1225 11.3529C71.1225 11 71.1225 10.6078 71.1225 10.1765C70.701 10.1765 70.3088 10.1765 69.9461 10.1765C69.5833 10.1765 69.1912 10.1765 68.7696 10.1765C68.7696 10.6078 68.7696 11 68.7696 11.3529C68.7696 11.7059 68.7696 12.098 68.7696 12.5294ZM68.7696 12.5294C69.1912 12.5294 69.5833 12.5294 69.9461 12.5294C70.3088 12.5294 70.701 12.5294 71.1225 12.5294C71.1225 12.098 71.1225 11.7059 71.1225 11.3529C71.1225 11 71.1225 10.6078 71.1225 10.1765C70.701 10.1765 70.3088 10.1765 69.9461 10.1765C69.5833 10.1765 69.1912 10.1765 68.7696 10.1765C68.7696 10.6078 68.7696 11 68.7696 11.3529C68.7696 11.7059 68.7696 12.098 68.7696 12.5294ZM68.7696 12.5294C69.1912 12.5294 69.5833 12.5294 69.9461 12.5294C70.3088 12.5294 70.701 12.5294 71.1225 12.5294C71.1225 12.098 71.1225 11.7059 71.1225 11.3529C71.1225 11 71.1225 10.6078 71.1225 10.1765C70.701 10.1765 70.3088 10.1765 69.9461 10.1765C69.5833 10.1765 69.1912 10.1765 68.7696 10.1765C68.7696 10.6078 68.7696 11 68.7696 11.3529C68.7696 11.7059 68.7696 12.098 68.7696 12.5294ZM68.7696 12.5294C69.1912 12.5294 69.5833 12.5294 69.9461 12.5294C70.3088 12.5294 70.701 12.5294 71.1225 12.5294C71.1225 12.098 71.1225 11.7059 71.1225 11.3529C71.1225 11 71.1225 10.6078 71.1225 10.1765C70.701 10.1765 70.3088 10.1765 69.9461 10.1765C69.5833 10.1765 69.1912 10.1765 68.7696 10.1765C68.7696 10.6078 68.7696 11 68.7696 11.3529C68.7696 11.7059 68.7696 12.098 68.7696 12.5294ZM68.7696 12.5294C69.1912 12.5294 69.5833 12.5294 69.9461 12.5294C70.3088 12.5294 70.701 12.5294 71.1225 12.5294C71.1225 12.098 71.1225 11.7059 71.1225 11.3529C71.1225 11 71.1225 10.6078 71.1225 10.1765C70.701 10.1765 70.3088 10.1765 69.9461 10.1765C69.5833 10.1765 69.1912 10.1765 68.7696 10.1765C68.7696 10.6078 68.7696 11 68.7696 11.3529C68.7696 11.7059 68.7696 12.098 68.7696 12.5294ZM68.7696 12.5294C69.1912 12.5294 69.5833 12.5294 69.9461 12.5294C70.3088 12.5294 70.701 12.5294 71.1225 12.5294C71.1225 12.098 71.1225 11.7059 71.1225 11.3529C71.1225 11 71.1225 10.6078 71.1225 10.1765C70.701 10.1765 70.3088 10.1765 69.9461 10.1765C69.5833 10.1765 69.1912 10.1765 68.7696 10.1765C68.7696 10.6078 68.7696 11 68.7696 11.3529C68.7696 11.7059 68.7696 12.098 68.7696 12.5294ZM68.7696 12.5294C69.1912 12.5294 69.5833 12.5294 69.9461 12.5294C70.3088 12.5294 70.701 12.5294 71.1225 12.5294C71.1225 12.098 71.1225 11.7059 71.1225 11.3529C71.1225 11 71.1225 10.6078 71.1225 10.1765C70.701 10.1765 70.3088 10.1765 69.9461 10.1765C69.5833 10.1765 69.1912 10.1765 68.7696 10.1765C68.7696 10.6078 68.7696 11 68.7696 11.3529C68.7696 11.7059 68.7696 12.098 68.7696 12.5294ZM68.7696 12.5294C69.1912 12.5294 69.5833 12.5294 69.9461 12.5294C70.3088 12.5294 70.701 12.5294 71.1225 12.5294C71.1225 12.098 71.1225 11.7059 71.1225 11.3529C71.1225 11 71.1225 10.6078 71.1225 10.1765C70.701 10.1765 70.3088 10.1765 69.9461 10.1765C69.5833 10.1765 69.1912 10.1765 68.7696 10.1765C68.7696 10.6078 68.7696 11 68.7696 11.3529C68.7696 11.7059 68.7696 12.098 68.7696 12.5294ZM68.7696 12.5294C69.1912 12.5294 69.5833 12.5294 69.9461 12.5294C70.3088 12.5294 70.701 12.5294 71.1225 12.5294C71.1225 12.098 71.1225 11.7059 71.1225 11.3529C71.1225 11 71.1225 10.6078 71.1225 10.1765C70.701 10.1765 70.3088 10.1765 69.9461 10.1765C69.5833 10.1765 69.1912 10.1765 68.7696 10.1765C68.7696 10.6078 68.7696 11 68.7696 11.3529C68.7696 11.7059 68.7696 12.098 68.7696 12.5294ZM60.5343 10.1765C60.9559 10.1765 61.348 10.1765 61.7108 10.1765C62.0735 10.1765 62.4657 10.1765 62.8873 10.1765C62.8873 9.7451 62.8873 9.35294 62.8873 9C62.8873 8.64706 62.8873 8.2549 62.8873 7.82353C62.4657 7.82353 62.0735 7.82353 61.7108 7.82353C61.348 7.82353 60.9559 7.82353 60.5343 7.82353C60.5343 8.2549 60.5343 8.64706 60.5343 9C60.5343 9.35294 60.5343 9.7451 60.5343 10.1765ZM60.5343 10.1765C60.9559 10.1765 61.348 10.1765 61.7108 10.1765C62.0735 10.1765 62.4657 10.1765 62.8873 10.1765C62.8873 9.7451 62.8873 9.35294 62.8873 9C62.8873 8.64706 62.8873 8.2549 62.8873 7.82353C62.4657 7.82353 62.0735 7.82353 61.7108 7.82353C61.348 7.82353 60.9559 7.82353 60.5343 7.82353C60.5343 8.2549 60.5343 8.64706 60.5343 9C60.5343 9.35294 60.5343 9.7451 60.5343 10.1765ZM60.5343 10.1765C60.9559 10.1765 61.348 10.1765 61.7108 10.1765C62.0735 10.1765 62.4657 10.1765 62.8873 10.1765C62.8873 9.7451 62.8873 9.35294 62.8873 9C62.8873 8.64706 62.8873 8.2549 62.8873 7.82353C62.4657 7.82353 62.0735 7.82353 61.7108 7.82353C61.348 7.82353 60.9559 7.82353 60.5343 7.82353C60.5343 8.2549 60.5343 8.64706 60.5343 9C60.5343 9.35294 60.5343 9.7451 60.5343 10.1765ZM60.5343 10.1765C60.9559 10.1765 61.348 10.1765 61.7108 10.1765C62.0735 10.1765 62.4657 10.1765 62.8873 10.1765C62.8873 9.7451 62.8873 9.35294 62.8873 9C62.8873 8.64706 62.8873 8.2549 62.8873 7.82353C62.4657 7.82353 62.0735 7.82353 61.7108 7.82353C61.348 7.82353 60.9559 7.82353 60.5343 7.82353C60.5343 8.2549 60.5343 8.64706 60.5343 9C60.5343 9.35294 60.5343 9.7451 60.5343 10.1765ZM60.5343 10.1765C60.9559 10.1765 61.348 10.1765 61.7108 10.1765C62.0735 10.1765 62.4657 10.1765 62.8873 10.1765C62.8873 9.7451 62.8873 9.35294 62.8873 9C62.8873 8.64706 62.8873 8.2549 62.8873 7.82353C62.4657 7.82353 62.0735 7.82353 61.7108 7.82353C61.348 7.82353 60.9559 7.82353 60.5343 7.82353C60.5343 8.2549 60.5343 8.64706 60.5343 9C60.5343 9.35294 60.5343 9.7451 60.5343 10.1765ZM60.5343 10.1765C60.9559 10.1765 61.348 10.1765 61.7108 10.1765C62.0735 10.1765 62.4657 10.1765 62.8873 10.1765C62.8873 9.7451 62.8873 9.35294 62.8873 9C62.8873 8.64706 62.8873 8.2549 62.8873 7.82353C62.4657 7.82353 62.0735 7.82353 61.7108 7.82353C61.348 7.82353 60.9559 7.82353 60.5343 7.82353C60.5343 8.2549 60.5343 8.64706 60.5343 9C60.5343 9.35294 60.5343 9.7451 60.5343 10.1765ZM60.5343 10.1765C60.9559 10.1765 61.348 10.1765 61.7108 10.1765C62.0735 10.1765 62.4657 10.1765 62.8873 10.1765C62.8873 9.7451 62.8873 9.35294 62.8873 9C62.8873 8.64706 62.8873 8.2549 62.8873 7.82353C62.4657 7.82353 62.0735 7.82353 61.7108 7.82353C61.348 7.82353 60.9559 7.82353 60.5343 7.82353C60.5343 8.2549 60.5343 8.64706 60.5343 9C60.5343 9.35294 60.5343 9.7451 60.5343 10.1765ZM60.5343 10.1765C60.9559 10.1765 61.348 10.1765 61.7108 10.1765C62.0735 10.1765 62.4657 10.1765 62.8873 10.1765C62.8873 9.7451 62.8873 9.35294 62.8873 9C62.8873 8.64706 62.8873 8.2549 62.8873 7.82353C62.4657 7.82353 62.0735 7.82353 61.7108 7.82353C61.348 7.82353 60.9559 7.82353 60.5343 7.82353C60.5343 8.2549 60.5343 8.64706 60.5343 9C60.5343 9.35294 60.5343 9.7451 60.5343 10.1765ZM60.5343 10.1765C60.9559 10.1765 61.348 10.1765 61.7108 10.1765C62.0735 10.1765 62.4657 10.1765 62.8873 10.1765C62.8873 9.7451 62.8873 9.35294 62.8873 9C62.8873 8.64706 62.8873 8.2549 62.8873 7.82353C62.4657 7.82353 62.0735 7.82353 61.7108 7.82353C61.348 7.82353 60.9559 7.82353 60.5343 7.82353C60.5343 8.2549 60.5343 8.64706 60.5343 9C60.5343 9.35294 60.5343 9.7451 60.5343 10.1765ZM67.5931 10.1765C68.0147 10.1765 68.4069 10.1765 68.7696 10.1765C69.1324 10.1765 69.5245 10.1765 69.9461 10.1765C69.9461 9.7451 69.9461 9.35294 69.9461 9C69.9461 8.64706 69.9461 8.2549 69.9461 7.82353C69.5245 7.82353 69.1324 7.82353 68.7696 7.82353C68.4069 7.82353 68.0147 7.82353 67.5931 7.82353C67.5931 8.2549 67.5931 8.64706 67.5931 9C67.5931 9.35294 67.5931 9.7451 67.5931 10.1765ZM67.5931 10.1765C68.0147 10.1765 68.4069 10.1765 68.7696 10.1765C69.1324 10.1765 69.5245 10.1765 69.9461 10.1765C69.9461 9.7451 69.9461 9.35294 69.9461 9C69.9461 8.64706 69.9461 8.2549 69.9461 7.82353C69.5245 7.82353 69.1324 7.82353 68.7696 7.82353C68.4069 7.82353 68.0147 7.82353 67.5931 7.82353C67.5931 8.2549 67.5931 8.64706 67.5931 9C67.5931 9.35294 67.5931 9.7451 67.5931 10.1765ZM67.5931 10.1765C68.0147 10.1765 68.4069 10.1765 68.7696 10.1765C69.1324 10.1765 69.5245 10.1765 69.9461 10.1765C69.9461 9.7451 69.9461 9.35294 69.9461 9C69.9461 8.64706 69.9461 8.2549 69.9461 7.82353C69.5245 7.82353 69.1324 7.82353 68.7696 7.82353C68.4069 7.82353 68.0147 7.82353 67.5931 7.82353C67.5931 8.2549 67.5931 8.64706 67.5931 9C67.5931 9.35294 67.5931 9.7451 67.5931 10.1765ZM67.5931 10.1765C68.0147 10.1765 68.4069 10.1765 68.7696 10.1765C69.1324 10.1765 69.5245 10.1765 69.9461 10.1765C69.9461 9.7451 69.9461 9.35294 69.9461 9C69.9461 8.64706 69.9461 8.2549 69.9461 7.82353C69.5245 7.82353 69.1324 7.82353 68.7696 7.82353C68.4069 7.82353 68.0147 7.82353 67.5931 7.82353C67.5931 8.2549 67.5931 8.64706 67.5931 9C67.5931 9.35294 67.5931 9.7451 67.5931 10.1765ZM67.5931 10.1765C68.0147 10.1765 68.4069 10.1765 68.7696 10.1765C69.1324 10.1765 69.5245 10.1765 69.9461 10.1765C69.9461 9.7451 69.9461 9.35294 69.9461 9C69.9461 8.64706 69.9461 8.2549 69.9461 7.82353C69.5245 7.82353 69.1324 7.82353 68.7696 7.82353C68.4069 7.82353 68.0147 7.82353 67.5931 7.82353C67.5931 8.2549 67.5931 8.64706 67.5931 9C67.5931 9.35294 67.5931 9.7451 67.5931 10.1765ZM67.5931 10.1765C68.0147 10.1765 68.4069 10.1765 68.7696 10.1765C69.1324 10.1765 69.5245 10.1765 69.9461 10.1765C69.9461 9.7451 69.9461 9.35294 69.9461 9C69.9461 8.64706 69.9461 8.2549 69.9461 7.82353C69.5245 7.82353 69.1324 7.82353 68.7696 7.82353C68.4069 7.82353 68.0147 7.82353 67.5931 7.82353C67.5931 8.2549 67.5931 8.64706 67.5931 9C67.5931 9.35294 67.5931 9.7451 67.5931 10.1765ZM67.5931 10.1765C68.0147 10.1765 68.4069 10.1765 68.7696 10.1765C69.1324 10.1765 69.5245 10.1765 69.9461 10.1765C69.9461 9.7451 69.9461 9.35294 69.9461 9C69.9461 8.64706 69.9461 8.2549 69.9461 7.82353C69.5245 7.82353 69.1324 7.82353 68.7696 7.82353C68.4069 7.82353 68.0147 7.82353 67.5931 7.82353C67.5931 8.2549 67.5931 8.64706 67.5931 9C67.5931 9.35294 67.5931 9.7451 67.5931 10.1765ZM67.5931 10.1765C68.0147 10.1765 68.4069 10.1765 68.7696 10.1765C69.1324 10.1765 69.5245 10.1765 69.9461 10.1765C69.9461 9.7451 69.9461 9.35294 69.9461 9C69.9461 8.64706 69.9461 8.2549 69.9461 7.82353C69.5245 7.82353 69.1324 7.82353 68.7696 7.82353C68.4069 7.82353 68.0147 7.82353 67.5931 7.82353C67.5931 8.2549 67.5931 8.64706 67.5931 9C67.5931 9.35294 67.5931 9.7451 67.5931 10.1765ZM67.5931 10.1765C68.0147 10.1765 68.4069 10.1765 68.7696 10.1765C69.1324 10.1765 69.5245 10.1765 69.9461 10.1765C69.9461 9.7451 69.9461 9.35294 69.9461 9C69.9461 8.64706 69.9461 8.2549 69.9461 7.82353C69.5245 7.82353 69.1324 7.82353 68.7696 7.82353C68.4069 7.82353 68.0147 7.82353 67.5931 7.82353C67.5931 8.2549 67.5931 8.64706 67.5931 9C67.5931 9.35294 67.5931 9.7451 67.5931 10.1765ZM61.7108 7.82353C62.1324 7.82353 62.5245 7.82353 62.8873 7.82353C63.25 7.82353 63.6422 7.82353 64.0637 7.82353C64.0637 7.39216 64.0637 7 64.0637 6.64706C64.0637 6.29412 64.0637 5.90196 64.0637 5.47059C63.6422 5.47059 63.25 5.47059 62.8873 5.47059C62.5245 5.47059 62.1324 5.47059 61.7108 5.47059C61.7108 5.90196 61.7108 6.29412 61.7108 6.64706C61.7108 7 61.7108 7.39216 61.7108 7.82353ZM61.7108 7.82353C62.1324 7.82353 62.5245 7.82353 62.8873 7.82353C63.25 7.82353 63.6422 7.82353 64.0637 7.82353C64.0637 7.39216 64.0637 7 64.0637 6.64706C64.0637 6.29412 64.0637 5.90196 64.0637 5.47059C63.6422 5.47059 63.25 5.47059 62.8873 5.47059C62.5245 5.47059 62.1324 5.47059 61.7108 5.47059C61.7108 5.90196 61.7108 6.29412 61.7108 6.64706C61.7108 7 61.7108 7.39216 61.7108 7.82353ZM61.7108 7.82353C62.1324 7.82353 62.5245 7.82353 62.8873 7.82353C63.25 7.82353 63.6422 7.82353 64.0637 7.82353C64.0637 7.39216 64.0637 7 64.0637 6.64706C64.0637 6.29412 64.0637 5.90196 64.0637 5.47059C63.6422 5.47059 63.25 5.47059 62.8873 5.47059C62.5245 5.47059 62.1324 5.47059 61.7108 5.47059C61.7108 5.90196 61.7108 6.29412 61.7108 6.64706C61.7108 7 61.7108 7.39216 61.7108 7.82353ZM61.7108 7.82353C62.1324 7.82353 62.5245 7.82353 62.8873 7.82353C63.25 7.82353 63.6422 7.82353 64.0637 7.82353C64.0637 7.39216 64.0637 7 64.0637 6.64706C64.0637 6.29412 64.0637 5.90196 64.0637 5.47059C63.6422 5.47059 63.25 5.47059 62.8873 5.47059C62.5245 5.47059 62.1324 5.47059 61.7108 5.47059C61.7108 5.90196 61.7108 6.29412 61.7108 6.64706C61.7108 7 61.7108 7.39216 61.7108 7.82353ZM61.7108 7.82353C62.1324 7.82353 62.5245 7.82353 62.8873 7.82353C63.25 7.82353 63.6422 7.82353 64.0637 7.82353C64.0637 7.39216 64.0637 7 64.0637 6.64706C64.0637 6.29412 64.0637 5.90196 64.0637 5.47059C63.6422 5.47059 63.25 5.47059 62.8873 5.47059C62.5245 5.47059 62.1324 5.47059 61.7108 5.47059C61.7108 5.90196 61.7108 6.29412 61.7108 6.64706C61.7108 7 61.7108 7.39216 61.7108 7.82353ZM61.7108 7.82353C62.1324 7.82353 62.5245 7.82353 62.8873 7.82353C63.25 7.82353 63.6422 7.82353 64.0637 7.82353C64.0637 7.39216 64.0637 7 64.0637 6.64706C64.0637 6.29412 64.0637 5.90196 64.0637 5.47059C63.6422 5.47059 63.25 5.47059 62.8873 5.47059C62.5245 5.47059 62.1324 5.47059 61.7108 5.47059C61.7108 5.90196 61.7108 6.29412 61.7108 6.64706C61.7108 7 61.7108 7.39216 61.7108 7.82353ZM61.7108 7.82353C62.1324 7.82353 62.5245 7.82353 62.8873 7.82353C63.25 7.82353 63.6422 7.82353 64.0637 7.82353C64.0637 7.39216 64.0637 7 64.0637 6.64706C64.0637 6.29412 64.0637 5.90196 64.0637 5.47059C63.6422 5.47059 63.25 5.47059 62.8873 5.47059C62.5245 5.47059 62.1324 5.47059 61.7108 5.47059C61.7108 5.90196 61.7108 6.29412 61.7108 6.64706C61.7108 7 61.7108 7.39216 61.7108 7.82353ZM61.7108 7.82353C62.1324 7.82353 62.5245 7.82353 62.8873 7.82353C63.25 7.82353 63.6422 7.82353 64.0637 7.82353C64.0637 7.39216 64.0637 7 64.0637 6.64706C64.0637 6.29412 64.0637 5.90196 64.0637 5.47059C63.6422 5.47059 63.25 5.47059 62.8873 5.47059C62.5245 5.47059 62.1324 5.47059 61.7108 5.47059C61.7108 5.90196 61.7108 6.29412 61.7108 6.64706C61.7108 7 61.7108 7.39216 61.7108 7.82353ZM61.7108 7.82353C62.1324 7.82353 62.5245 7.82353 62.8873 7.82353C63.25 7.82353 63.6422 7.82353 64.0637 7.82353C64.0637 7.39216 64.0637 7 64.0637 6.64706C64.0637 6.29412 64.0637 5.90196 64.0637 5.47059C63.6422 5.47059 63.25 5.47059 62.8873 5.47059C62.5245 5.47059 62.1324 5.47059 61.7108 5.47059C61.7108 5.90196 61.7108 6.29412 61.7108 6.64706C61.7108 7 61.7108 7.39216 61.7108 7.82353ZM66.4167 7.82353C66.8382 7.82353 67.2304 7.82353 67.5931 7.82353C67.9559 7.82353 68.348 7.82353 68.7696 7.82353C68.7696 7.39216 68.7696 7 68.7696 6.64706C68.7696 6.29412 68.7696 5.90196 68.7696 5.47059C68.348 5.47059 67.9559 5.47059 67.5931 5.47059C67.2304 5.47059 66.8382 5.47059 66.4167 5.47059C66.4167 5.90196 66.4167 6.29412 66.4167 6.64706C66.4167 7 66.4167 7.39216 66.4167 7.82353ZM66.4167 7.82353C66.8382 7.82353 67.2304 7.82353 67.5931 7.82353C67.9559 7.82353 68.348 7.82353 68.7696 7.82353C68.7696 7.39216 68.7696 7 68.7696 6.64706C68.7696 6.29412 68.7696 5.90196 68.7696 5.47059C68.348 5.47059 67.9559 5.47059 67.5931 5.47059C67.2304 5.47059 66.8382 5.47059 66.4167 5.47059C66.4167 5.90196 66.4167 6.29412 66.4167 6.64706C66.4167 7 66.4167 7.39216 66.4167 7.82353ZM66.4167 7.82353C66.8382 7.82353 67.2304 7.82353 67.5931 7.82353C67.9559 7.82353 68.348 7.82353 68.7696 7.82353C68.7696 7.39216 68.7696 7 68.7696 6.64706C68.7696 6.29412 68.7696 5.90196 68.7696 5.47059C68.348 5.47059 67.9559 5.47059 67.5931 5.47059C67.2304 5.47059 66.8382 5.47059 66.4167 5.47059C66.4167 5.90196 66.4167 6.29412 66.4167 6.64706C66.4167 7 66.4167 7.39216 66.4167 7.82353ZM66.4167 7.82353C66.8382 7.82353 67.2304 7.82353 67.5931 7.82353C67.9559 7.82353 68.348 7.82353 68.7696 7.82353C68.7696 7.39216 68.7696 7 68.7696 6.64706C68.7696 6.29412 68.7696 5.90196 68.7696 5.47059C68.348 5.47059 67.9559 5.47059 67.5931 5.47059C67.2304 5.47059 66.8382 5.47059 66.4167 5.47059C66.4167 5.90196 66.4167 6.29412 66.4167 6.64706C66.4167 7 66.4167 7.39216 66.4167 7.82353ZM66.4167 7.82353C66.8382 7.82353 67.2304 7.82353 67.5931 7.82353C67.9559 7.82353 68.348 7.82353 68.7696 7.82353C68.7696 7.39216 68.7696 7 68.7696 6.64706C68.7696 6.29412 68.7696 5.90196 68.7696 5.47059C68.348 5.47059 67.9559 5.47059 67.5931 5.47059C67.2304 5.47059 66.8382 5.47059 66.4167 5.47059C66.4167 5.90196 66.4167 6.29412 66.4167 6.64706C66.4167 7 66.4167 7.39216 66.4167 7.82353ZM66.4167 7.82353C66.8382 7.82353 67.2304 7.82353 67.5931 7.82353C67.9559 7.82353 68.348 7.82353 68.7696 7.82353C68.7696 7.39216 68.7696 7 68.7696 6.64706C68.7696 6.29412 68.7696 5.90196 68.7696 5.47059C68.348 5.47059 67.9559 5.47059 67.5931 5.47059C67.2304 5.47059 66.8382 5.47059 66.4167 5.47059C66.4167 5.90196 66.4167 6.29412 66.4167 6.64706C66.4167 7 66.4167 7.39216 66.4167 7.82353ZM66.4167 7.82353C66.8382 7.82353 67.2304 7.82353 67.5931 7.82353C67.9559 7.82353 68.348 7.82353 68.7696 7.82353C68.7696 7.39216 68.7696 7 68.7696 6.64706C68.7696 6.29412 68.7696 5.90196 68.7696 5.47059C68.348 5.47059 67.9559 5.47059 67.5931 5.47059C67.2304 5.47059 66.8382 5.47059 66.4167 5.47059C66.4167 5.90196 66.4167 6.29412 66.4167 6.64706C66.4167 7 66.4167 7.39216 66.4167 7.82353ZM66.4167 7.82353C66.8382 7.82353 67.2304 7.82353 67.5931 7.82353C67.9559 7.82353 68.348 7.82353 68.7696 7.82353C68.7696 7.39216 68.7696 7 68.7696 6.64706C68.7696 6.29412 68.7696 5.90196 68.7696 5.47059C68.348 5.47059 67.9559 5.47059 67.5931 5.47059C67.2304 5.47059 66.8382 5.47059 66.4167 5.47059C66.4167 5.90196 66.4167 6.29412 66.4167 6.64706C66.4167 7 66.4167 7.39216 66.4167 7.82353ZM66.4167 7.82353C66.8382 7.82353 67.2304 7.82353 67.5931 7.82353C67.9559 7.82353 68.348 7.82353 68.7696 7.82353C68.7696 7.39216 68.7696 7 68.7696 6.64706C68.7696 6.29412 68.7696 5.90196 68.7696 5.47059C68.348 5.47059 67.9559 5.47059 67.5931 5.47059C67.2304 5.47059 66.8382 5.47059 66.4167 5.47059C66.4167 5.90196 66.4167 6.29412 66.4167 6.64706C66.4167 7 66.4167 7.39216 66.4167 7.82353ZM62.8873 5.47059C63.3088 5.47059 63.701 5.47059 64.0637 5.47059C64.4265 5.47059 64.8186 5.47059 65.2402 5.47059C65.2402 5.03921 65.2402 4.64706 65.2402 4.29412C65.2402 3.94117 65.2402 3.54902 65.2402 3.11765C64.8186 3.11765 64.4265 3.11765 64.0637 3.11765C63.701 3.11765 63.3088 3.11765 62.8873 3.11765C62.8873 3.54902 62.8873 3.94117 62.8873 4.29412C62.8873 4.64706 62.8873 5.03921 62.8873 5.47059ZM62.8873 5.47059C63.3088 5.47059 63.701 5.47059 64.0637 5.47059C64.4265 5.47059 64.8186 5.47059 65.2402 5.47059C65.2402 5.03921 65.2402 4.64706 65.2402 4.29412C65.2402 3.94117 65.2402 3.54902 65.2402 3.11765C64.8186 3.11765 64.4265 3.11765 64.0637 3.11765C63.701 3.11765 63.3088 3.11765 62.8873 3.11765C62.8873 3.54902 62.8873 3.94117 62.8873 4.29412C62.8873 4.64706 62.8873 5.03921 62.8873 5.47059ZM62.8873 5.47059C63.3088 5.47059 63.701 5.47059 64.0637 5.47059C64.4265 5.47059 64.8186 5.47059 65.2402 5.47059C65.2402 5.03921 65.2402 4.64706 65.2402 4.29412C65.2402 3.94117 65.2402 3.54902 65.2402 3.11765C64.8186 3.11765 64.4265 3.11765 64.0637 3.11765C63.701 3.11765 63.3088 3.11765 62.8873 3.11765C62.8873 3.54902 62.8873 3.94117 62.8873 4.29412C62.8873 4.64706 62.8873 5.03921 62.8873 5.47059ZM62.8873 5.47059C63.3088 5.47059 63.701 5.47059 64.0637 5.47059C64.4265 5.47059 64.8186 5.47059 65.2402 5.47059C65.2402 5.03921 65.2402 4.64706 65.2402 4.29412C65.2402 3.94117 65.2402 3.54902 65.2402 3.11765C64.8186 3.11765 64.4265 3.11765 64.0637 3.11765C63.701 3.11765 63.3088 3.11765 62.8873 3.11765C62.8873 3.54902 62.8873 3.94117 62.8873 4.29412C62.8873 4.64706 62.8873 5.03921 62.8873 5.47059ZM62.8873 5.47059C63.3088 5.47059 63.701 5.47059 64.0637 5.47059C64.4265 5.47059 64.8186 5.47059 65.2402 5.47059C65.2402 5.03921 65.2402 4.64706 65.2402 4.29412C65.2402 3.94117 65.2402 3.54902 65.2402 3.11765C64.8186 3.11765 64.4265 3.11765 64.0637 3.11765C63.701 3.11765 63.3088 3.11765 62.8873 3.11765C62.8873 3.54902 62.8873 3.94117 62.8873 4.29412C62.8873 4.64706 62.8873 5.03921 62.8873 5.47059ZM62.8873 5.47059C63.3088 5.47059 63.701 5.47059 64.0637 5.47059C64.4265 5.47059 64.8186 5.47059 65.2402 5.47059C65.2402 5.03921 65.2402 4.64706 65.2402 4.29412C65.2402 3.94117 65.2402 3.54902 65.2402 3.11765C64.8186 3.11765 64.4265 3.11765 64.0637 3.11765C63.701 3.11765 63.3088 3.11765 62.8873 3.11765C62.8873 3.54902 62.8873 3.94117 62.8873 4.29412C62.8873 4.64706 62.8873 5.03921 62.8873 5.47059ZM62.8873 5.47059C63.3088 5.47059 63.701 5.47059 64.0637 5.47059C64.4265 5.47059 64.8186 5.47059 65.2402 5.47059C65.2402 5.03921 65.2402 4.64706 65.2402 4.29412C65.2402 3.94117 65.2402 3.54902 65.2402 3.11765C64.8186 3.11765 64.4265 3.11765 64.0637 3.11765C63.701 3.11765 63.3088 3.11765 62.8873 3.11765C62.8873 3.54902 62.8873 3.94117 62.8873 4.29412C62.8873 4.64706 62.8873 5.03921 62.8873 5.47059ZM62.8873 5.47059C63.3088 5.47059 63.701 5.47059 64.0637 5.47059C64.4265 5.47059 64.8186 5.47059 65.2402 5.47059C65.2402 5.03921 65.2402 4.64706 65.2402 4.29412C65.2402 3.94117 65.2402 3.54902 65.2402 3.11765C64.8186 3.11765 64.4265 3.11765 64.0637 3.11765C63.701 3.11765 63.3088 3.11765 62.8873 3.11765C62.8873 3.54902 62.8873 3.94117 62.8873 4.29412C62.8873 4.64706 62.8873 5.03921 62.8873 5.47059ZM62.8873 5.47059C63.3088 5.47059 63.701 5.47059 64.0637 5.47059C64.4265 5.47059 64.8186 5.47059 65.2402 5.47059C65.2402 5.03921 65.2402 4.64706 65.2402 4.29412C65.2402 3.94117 65.2402 3.54902 65.2402 3.11765C64.8186 3.11765 64.4265 3.11765 64.0637 3.11765C63.701 3.11765 63.3088 3.11765 62.8873 3.11765C62.8873 3.54902 62.8873 3.94117 62.8873 4.29412C62.8873 4.64706 62.8873 5.03921 62.8873 5.47059ZM65.2402 5.47059C65.6618 5.47059 66.0539 5.47059 66.4167 5.47059C66.7794 5.47059 67.1716 5.47059 67.5931 5.47059C67.5931 5.03921 67.5931 4.64706 67.5931 4.29412C67.5931 3.94117 67.5931 3.54902 67.5931 3.11765C67.1716 3.11765 66.7794 3.11765 66.4167 3.11765C66.0539 3.11765 65.6618 3.11765 65.2402 3.11765C65.2402 3.54902 65.2402 3.94117 65.2402 4.29412C65.2402 4.64706 65.2402 5.03921 65.2402 5.47059ZM65.2402 5.47059C65.6618 5.47059 66.0539 5.47059 66.4167 5.47059C66.7794 5.47059 67.1716 5.47059 67.5931 5.47059C67.5931 5.03921 67.5931 4.64706 67.5931 4.29412C67.5931 3.94117 67.5931 3.54902 67.5931 3.11765C67.1716 3.11765 66.7794 3.11765 66.4167 3.11765C66.0539 3.11765 65.6618 3.11765 65.2402 3.11765C65.2402 3.54902 65.2402 3.94117 65.2402 4.29412C65.2402 4.64706 65.2402 5.03921 65.2402 5.47059ZM65.2402 5.47059C65.6618 5.47059 66.0539 5.47059 66.4167 5.47059C66.7794 5.47059 67.1716 5.47059 67.5931 5.47059C67.5931 5.03921 67.5931 4.64706 67.5931 4.29412C67.5931 3.94117 67.5931 3.54902 67.5931 3.11765C67.1716 3.11765 66.7794 3.11765 66.4167 3.11765C66.0539 3.11765 65.6618 3.11765 65.2402 3.11765C65.2402 3.54902 65.2402 3.94117 65.2402 4.29412C65.2402 4.64706 65.2402 5.03921 65.2402 5.47059ZM65.2402 5.47059C65.6618 5.47059 66.0539 5.47059 66.4167 5.47059C66.7794 5.47059 67.1716 5.47059 67.5931 5.47059C67.5931 5.03921 67.5931 4.64706 67.5931 4.29412C67.5931 3.94117 67.5931 3.54902 67.5931 3.11765C67.1716 3.11765 66.7794 3.11765 66.4167 3.11765C66.0539 3.11765 65.6618 3.11765 65.2402 3.11765C65.2402 3.54902 65.2402 3.94117 65.2402 4.29412C65.2402 4.64706 65.2402 5.03921 65.2402 5.47059ZM65.2402 5.47059C65.6618 5.47059 66.0539 5.47059 66.4167 5.47059C66.7794 5.47059 67.1716 5.47059 67.5931 5.47059C67.5931 5.03921 67.5931 4.64706 67.5931 4.29412C67.5931 3.94117 67.5931 3.54902 67.5931 3.11765C67.1716 3.11765 66.7794 3.11765 66.4167 3.11765C66.0539 3.11765 65.6618 3.11765 65.2402 3.11765C65.2402 3.54902 65.2402 3.94117 65.2402 4.29412C65.2402 4.64706 65.2402 5.03921 65.2402 5.47059ZM65.2402 5.47059C65.6618 5.47059 66.0539 5.47059 66.4167 5.47059C66.7794 5.47059 67.1716 5.47059 67.5931 5.47059C67.5931 5.03921 67.5931 4.64706 67.5931 4.29412C67.5931 3.94117 67.5931 3.54902 67.5931 3.11765C67.1716 3.11765 66.7794 3.11765 66.4167 3.11765C66.0539 3.11765 65.6618 3.11765 65.2402 3.11765C65.2402 3.54902 65.2402 3.94117 65.2402 4.29412C65.2402 4.64706 65.2402 5.03921 65.2402 5.47059ZM65.2402 5.47059C65.6618 5.47059 66.0539 5.47059 66.4167 5.47059C66.7794 5.47059 67.1716 5.47059 67.5931 5.47059C67.5931 5.03921 67.5931 4.64706 67.5931 4.29412C67.5931 3.94117 67.5931 3.54902 67.5931 3.11765C67.1716 3.11765 66.7794 3.11765 66.4167 3.11765C66.0539 3.11765 65.6618 3.11765 65.2402 3.11765C65.2402 3.54902 65.2402 3.94117 65.2402 4.29412C65.2402 4.64706 65.2402 5.03921 65.2402 5.47059ZM65.2402 5.47059C65.6618 5.47059 66.0539 5.47059 66.4167 5.47059C66.7794 5.47059 67.1716 5.47059 67.5931 5.47059C67.5931 5.03921 67.5931 4.64706 67.5931 4.29412C67.5931 3.94117 67.5931 3.54902 67.5931 3.11765C67.1716 3.11765 66.7794 3.11765 66.4167 3.11765C66.0539 3.11765 65.6618 3.11765 65.2402 3.11765C65.2402 3.54902 65.2402 3.94117 65.2402 4.29412C65.2402 4.64706 65.2402 5.03921 65.2402 5.47059ZM65.2402 5.47059C65.6618 5.47059 66.0539 5.47059 66.4167 5.47059C66.7794 5.47059 67.1716 5.47059 67.5931 5.47059C67.5931 5.03921 67.5931 4.64706 67.5931 4.29412C67.5931 3.94117 67.5931 3.54902 67.5931 3.11765C67.1716 3.11765 66.7794 3.11765 66.4167 3.11765C66.0539 3.11765 65.6618 3.11765 65.2402 3.11765C65.2402 3.54902 65.2402 3.94117 65.2402 4.29412C65.2402 4.64706 65.2402 5.03921 65.2402 5.47059ZM75.8422 29H77.0187H78.1952V27.8235V26.6471V25.4706V24.2941V23.1176V21.9412V20.7647V19.5882V18.4118V17.2353V16.0588V14.8824V13.7059V12.5294V11.3529V10.1765H79.3716V11.3529V12.5294H80.5481V13.7059V14.8824H81.7246V16.0588V17.2353H82.901V18.4118V19.5882H84.0775V20.7647V21.9412H85.254V23.1176V24.2941H86.4305H87.6069V25.4706V26.6471V27.8235V29H88.7834H89.9599V27.8235V26.6471V25.4706V24.2941V23.1176V21.9412V20.7647V19.5882V18.4118V17.2353V16.0588V14.8824V13.7059V12.5294V11.3529V10.1765V9V7.82353V6.64706V5.47059V4.29412V3.11765H88.7834H87.6069V4.29412V5.47059V6.64706V7.82353V9V10.1765V11.3529V12.5294V13.7059V14.8824V16.0588V17.2353V18.4118V19.5882V20.7647V21.9412H86.4305V20.7647V19.5882H85.254V18.4118V17.2353H84.0775V16.0588V14.8824H82.901V13.7059V12.5294H81.7246V11.3529V10.1765H80.5481V9V7.82353H79.3716H78.1952V6.64706V5.47059V4.29412V3.11765H77.0187H75.8422V4.29412V5.47059V6.64706V7.82353V9V10.1765V11.3529V12.5294V13.7059V14.8824V16.0588V17.2353V18.4118V19.5882V20.7647V21.9412V23.1176V24.2941V25.4706V26.6471V27.8235V29ZM97.0348 36.0588H98.2112H99.3877V34.8824V33.7059H100.564V32.5294V31.3529H101.741V30.1765V29H102.917V27.8235V26.6471H104.094V25.4706V24.2941H105.27V23.1176V21.9412H106.447V20.7647V19.5882H107.623V18.4118V17.2353H108.799V16.0588V14.8824H109.976V13.7059V12.5294H111.152V11.3529V10.1765H112.329V9V7.82353H113.505V6.64706V5.47059H114.682V4.29412V3.11765H115.858V1.94117V0.764705H114.682H113.505V1.94117V3.11765H112.329V4.29412V5.47059H111.152V6.64706V7.82353H109.976V9V10.1765H108.799V11.3529V12.5294H107.623V13.7059V14.8824H106.447V16.0588V17.2353H105.27V18.4118V19.5882H104.094V20.7647V21.9412H102.917V23.1176V24.2941H101.741V25.4706V26.6471H100.564V27.8235V29H99.3877V30.1765V31.3529H98.2112V32.5294V33.7059H97.0348V34.8824V36.0588ZM115.847 26.6471H117.023H118.2V25.4706V24.2941H117.023H115.847V25.4706V26.6471ZM118.2 24.2941H119.376H120.553V23.1176V21.9412H119.376H118.2V23.1176V24.2941ZM120.553 21.9412H121.729H122.906V20.7647V19.5882H121.729H120.553V20.7647V21.9412ZM122.906 19.5882H124.082H125.259V18.4118V17.2353H124.082H122.906V18.4118V19.5882ZM120.553 17.2353H121.729H122.906V16.0588V14.8824H121.729H120.553V16.0588V17.2353ZM118.2 14.8824H119.376H120.553V13.7059V12.5294H119.376H118.2V13.7059V14.8824ZM115.847 12.5294H117.023H118.2V11.3529V10.1765H117.023H115.847V11.3529V12.5294Z" fill="black"/>
</svg>
